{
    "avg_note_amplitude": 20.677425384521484,
    "division": 220,
    "notes": [
        {
            "amplitude": 19.225101470947266,
            "confidence": 0.99845743179321289,
            "end_tick": -1,
            "end_time": 640.0,
            "hand": 0,
            "idx": 0,
            "note_id": 0,
            "pitch": 38,
            "spec_col": 2,
            "spec_row": 9,
            "src_spec_col": 0,
            "src_spec_row": 10,
            "start_tick": -1,
            "start_time": 0.0,
            "velocity": 73
        },
        {
            "amplitude": 22.382183074951172,
            "confidence": 0.9839024543762207,
            "end_tick": -1,
            "end_time": 608.0,
            "hand": 0,
            "idx": 1,
            "note_id": 1,
            "pitch": 45,
            "spec_col": 10,
            "spec_row": 13,
            "src_spec_col": 7,
            "src_spec_row": 15,
            "start_tick": -1,
            "start_time": 224.0,
            "velocity": 54
        },
        {
            "amplitude": 22.511098861694336,
            "confidence": 0.9795525074005127,
            "end_tick": -1,
            "end_time": 1056.0,
            "hand": 0,
            "idx": 2,
            "note_id": 2,
            "pitch": 69,
            "spec_col": 10,
            "spec_row": 55,
            "src_spec_col": 7,
            "src_spec_row": 57,
            "start_tick": -1,
            "start_time": 224.0,
            "velocity": 63
        },
        {
            "amplitude": 19.859487533569336,
            "confidence": 0.0091745853424072266,
            "end_tick": -1,
            "end_time": 320.0,
            "hand": 0,
            "idx": 3,
            "note_id": 3,
            "pitch": 57,
            "spec_col": 9,
            "spec_row": 27,
            "src_spec_col": 8,
            "src_spec_row": 29,
            "start_tick": -1,
            "start_time": 256.0,
            "velocity": 60
        },
        {
            "amplitude": 21.88267707824707,
            "confidence": 0.99920308589935303,
            "end_tick": -1,
            "end_time": 800.0,
            "hand": 0,
            "idx": 4,
            "note_id": 4,
            "pitch": 50,
            "spec_col": 19,
            "spec_row": 18,
            "src_spec_col": 16,
            "src_spec_row": 19,
            "start_tick": -1,
            "start_time": 512.0,
            "velocity": 64
        },
        {
            "amplitude": 27.288206100463867,
            "confidence": 0.99821186065673828,
            "end_tick": -1,
            "end_time": 1024.0,
            "hand": 0,
            "idx": 5,
            "note_id": 5,
            "pitch": 71,
            "spec_col": 18,
            "spec_row": 62,
            "src_spec_col": 16,
            "src_spec_row": 64,
            "start_tick": -1,
            "start_time": 512.0,
            "velocity": 70
        },
        {
            "amplitude": 21.94757080078125,
            "confidence": 0.9981386661529541,
            "end_tick": -1,
            "end_time": 1792.0,
            "hand": 0,
            "idx": 6,
            "note_id": 6,
            "pitch": 74,
            "spec_col": 27,
            "spec_row": 74,
            "src_spec_col": 24,
            "src_spec_row": 76,
            "start_tick": -1,
            "start_time": 768.0,
            "velocity": 71
        },
        {
            "amplitude": 20.303501129150391,
            "confidence": 0.99871581792831421,
            "end_tick": -1,
            "end_time": 1504.0,
            "hand": 0,
            "idx": 7,
            "note_id": 7,
            "pitch": 38,
            "spec_col": 35,
            "spec_row": 9,
            "src_spec_col": 32,
            "src_spec_row": 10,
            "start_tick": -1,
            "start_time": 1024.0,
            "velocity": 61
        },
        {
            "amplitude": -0.29161909222602844,
            "confidence": 0.0054463744163513184,
            "end_tick": -1,
            "end_time": 1184.0,
            "hand": 0,
            "idx": 8,
            "note_id": 8,
            "pitch": 69,
            "spec_col": 35,
            "spec_row": 55,
            "src_spec_col": 33,
            "src_spec_row": 57,
            "start_tick": -1,
            "start_time": 1056.0,
            "velocity": 56
        },
        {
            "amplitude": 22.286752700805664,
            "confidence": 0.99899172782897949,
            "end_tick": -1,
            "end_time": 1568.0,
            "hand": 0,
            "idx": 9,
            "note_id": 9,
            "pitch": 45,
            "spec_col": 43,
            "spec_row": 13,
            "src_spec_col": 40,
            "src_spec_row": 15,
            "start_tick": -1,
            "start_time": 1280.0,
            "velocity": 61
        },
        {
            "amplitude": 22.234474182128906,
            "confidence": 0.99725645780563354,
            "end_tick": -1,
            "end_time": 2304.0,
            "hand": 0,
            "idx": 10,
            "note_id": 10,
            "pitch": 69,
            "spec_col": 42,
            "spec_row": 56,
            "src_spec_col": 40,
            "src_spec_row": 57,
            "start_tick": -1,
            "start_time": 1280.0,
            "velocity": 69
        },
        {
            "amplitude": 21.353179931640625,
            "confidence": 0.015557527542114258,
            "end_tick": -1,
            "end_time": 1376.0,
            "hand": 0,
            "idx": 11,
            "note_id": 11,
            "pitch": 57,
            "spec_col": 42,
            "spec_row": 27,
            "src_spec_col": 41,
            "src_spec_row": 29,
            "start_tick": -1,
            "start_time": 1312.0,
            "velocity": 61
        },
        {
            "amplitude": 21.86400032043457,
            "confidence": 0.99961555004119873,
            "end_tick": -1,
            "end_time": 1824.0,
            "hand": 0,
            "idx": 12,
            "note_id": 12,
            "pitch": 50,
            "spec_col": 52,
            "spec_row": 18,
            "src_spec_col": 48,
            "src_spec_row": 19,
            "start_tick": -1,
            "start_time": 1536.0,
            "velocity": 64
        },
        {
            "amplitude": 27.517330169677734,
            "confidence": 0.99919772148132324,
            "end_tick": -1,
            "end_time": 1952.0,
            "hand": 0,
            "idx": 13,
            "note_id": 13,
            "pitch": 71,
            "spec_col": 51,
            "spec_row": 62,
            "src_spec_col": 48,
            "src_spec_row": 64,
            "start_tick": -1,
            "start_time": 1536.0,
            "velocity": 70
        },
        {
            "amplitude": 22.157072067260742,
            "confidence": 0.98879432678222656,
            "end_tick": -1,
            "end_time": 3296.0,
            "hand": 0,
            "idx": 14,
            "note_id": 14,
            "pitch": 74,
            "spec_col": 60,
            "spec_row": 74,
            "src_spec_col": 56,
            "src_spec_row": 76,
            "start_tick": -1,
            "start_time": 1792.0,
            "velocity": 71
        },
        {
            "amplitude": 21.507476806640625,
            "confidence": 0.98697865009307861,
            "end_tick": -1,
            "end_time": 2464.0,
            "hand": 0,
            "idx": 15,
            "note_id": 15,
            "pitch": 81,
            "spec_col": 66,
            "spec_row": 112,
            "src_spec_col": 64,
            "src_spec_row": 113,
            "start_tick": -1,
            "start_time": 2048.0,
            "velocity": 71
        },
        {
            "amplitude": 22.083921432495117,
            "confidence": 0.99289071559906006,
            "end_tick": -1,
            "end_time": 2656.0,
            "hand": 0,
            "idx": 16,
            "note_id": 16,
            "pitch": 50,
            "spec_col": 68,
            "spec_row": 18,
            "src_spec_col": 65,
            "src_spec_row": 19,
            "start_tick": -1,
            "start_time": 2080.0,
            "velocity": 65
        },
        {
            "amplitude": 18.60252571105957,
            "confidence": 0.99807238578796387,
            "end_tick": -1,
            "end_time": 2720.0,
            "hand": 0,
            "idx": 17,
            "note_id": 17,
            "pitch": 57,
            "spec_col": 75,
            "spec_row": 27,
            "src_spec_col": 73,
            "src_spec_row": 29,
            "start_tick": -1,
            "start_time": 2336.0,
            "velocity": 66
        },
        {
            "amplitude": 26.932573318481445,
            "confidence": 0.99931979179382324,
            "end_tick": -1,
            "end_time": 3040.0,
            "hand": 0,
            "idx": 18,
            "note_id": 18,
            "pitch": 79,
            "spec_col": 75,
            "spec_row": 100,
            "src_spec_col": 73,
            "src_spec_row": 101,
            "start_tick": -1,
            "start_time": 2336.0,
            "velocity": 71
        },
        {
            "amplitude": 22.506841659545898,
            "confidence": 0.99850958585739136,
            "end_tick": -1,
            "end_time": 3072.0,
            "hand": 0,
            "idx": 19,
            "note_id": 19,
            "pitch": 81,
            "spec_col": 79,
            "spec_row": 112,
            "src_spec_col": 77,
            "src_spec_row": 113,
            "start_tick": -1,
            "start_time": 2464.0,
            "velocity": 75
        },
        {
            "amplitude": 24.271955490112305,
            "confidence": 0.99846702814102173,
            "end_tick": -1,
            "end_time": 3520.0,
            "hand": 0,
            "idx": 20,
            "note_id": 20,
            "pitch": 62,
            "spec_col": 83,
            "spec_row": 37,
            "src_spec_col": 81,
            "src_spec_row": 38,
            "start_tick": -1,
            "start_time": 2592.0,
            "velocity": 65
        },
        {
            "amplitude": 21.671737670898438,
            "confidence": 0.99824965000152588,
            "end_tick": -1,
            "end_time": 3328.0,
            "hand": 0,
            "idx": 21,
            "note_id": 21,
            "pitch": 83,
            "spec_col": 83,
            "spec_row": 126,
            "src_spec_col": 81,
            "src_spec_row": 127,
            "start_tick": -1,
            "start_time": 2592.0,
            "velocity": 73
        },
        {
            "amplitude": 23.382802963256836,
            "confidence": 0.99863642454147339,
            "end_tick": -1,
            "end_time": 3232.0,
            "hand": 0,
            "idx": 22,
            "note_id": 22,
            "pitch": 86,
            "spec_col": 92,
            "spec_row": 150,
            "src_spec_col": 89,
            "src_spec_row": 151,
            "start_tick": -1,
            "start_time": 2848.0,
            "velocity": 74
        },
        {
            "amplitude": 21.89268684387207,
            "confidence": 0.99955856800079346,
            "end_tick": -1,
            "end_time": 3424.0,
            "hand": 0,
            "idx": 23,
            "note_id": 23,
            "pitch": 50,
            "spec_col": 100,
            "spec_row": 18,
            "src_spec_col": 97,
            "src_spec_row": 19,
            "start_tick": -1,
            "start_time": 3104.0,
            "velocity": 66
        },
        {
            "amplitude": 21.888618469238281,
            "confidence": 0.99779695272445679,
            "end_tick": -1,
            "end_time": 3456.0,
            "hand": 0,
            "idx": 24,
            "note_id": 24,
            "pitch": 81,
            "spec_col": 99,
            "spec_row": 112,
            "src_spec_col": 97,
            "src_spec_row": 113,
            "start_tick": -1,
            "start_time": 3104.0,
            "velocity": 75
        },
        {
            "amplitude": 23.3974609375,
            "confidence": 0.99752724170684814,
            "end_tick": -1,
            "end_time": 4000.0,
            "hand": 0,
            "idx": 25,
            "note_id": 25,
            "pitch": 86,
            "spec_col": 104,
            "spec_row": 150,
            "src_spec_col": 101,
            "src_spec_row": 151,
            "start_tick": -1,
            "start_time": 3232.0,
            "velocity": 72
        },
        {
            "amplitude": 18.422773361206055,
            "confidence": 0.99624419212341309,
            "end_tick": -1,
            "end_time": 3872.0,
            "hand": 0,
            "idx": 26,
            "note_id": 26,
            "pitch": 57,
            "spec_col": 108,
            "spec_row": 27,
            "src_spec_col": 105,
            "src_spec_row": 29,
            "start_tick": -1,
            "start_time": 3360.0,
            "velocity": 59
        },
        {
            "amplitude": 22.042995452880859,
            "confidence": 0.99813592433929443,
            "end_tick": -1,
            "end_time": 3936.0,
            "hand": 0,
            "idx": 27,
            "note_id": 27,
            "pitch": 83,
            "spec_col": 107,
            "spec_row": 126,
            "src_spec_col": 105,
            "src_spec_row": 127,
            "start_tick": -1,
            "start_time": 3360.0,
            "velocity": 74
        },
        {
            "amplitude": 21.884654998779297,
            "confidence": 0.99666225910186768,
            "end_tick": -1,
            "end_time": 3776.0,
            "hand": 0,
            "idx": 28,
            "note_id": 28,
            "pitch": 81,
            "spec_col": 111,
            "spec_row": 112,
            "src_spec_col": 109,
            "src_spec_row": 113,
            "start_tick": -1,
            "start_time": 3488.0,
            "velocity": 74
        },
        {
            "amplitude": 24.254621505737305,
            "confidence": 0.988411545753479,
            "end_tick": -1,
            "end_time": 4544.0,
            "hand": 0,
            "idx": 29,
            "note_id": 29,
            "pitch": 62,
            "spec_col": 116,
            "spec_row": 37,
            "src_spec_col": 113,
            "src_spec_row": 38,
            "start_tick": -1,
            "start_time": 3616.0,
            "velocity": 64
        },
        {
            "amplitude": 27.014127731323242,
            "confidence": 0.99516314268112183,
            "end_tick": -1,
            "end_time": 3904.0,
            "hand": 0,
            "idx": 30,
            "note_id": 30,
            "pitch": 79,
            "spec_col": 116,
            "spec_row": 100,
            "src_spec_col": 113,
            "src_spec_row": 101,
            "start_tick": -1,
            "start_time": 3616.0,
            "velocity": 69
        },
        {
            "amplitude": 19.762861251831055,
            "confidence": 0.99845629930496216,
            "end_tick": -1,
            "end_time": 4288.0,
            "hand": 0,
            "idx": 31,
            "note_id": 31,
            "pitch": 81,
            "spec_col": 120,
            "spec_row": 112,
            "src_spec_col": 118,
            "src_spec_row": 113,
            "start_tick": -1,
            "start_time": 3776.0,
            "velocity": 75
        },
        {
            "amplitude": 27.114797592163086,
            "confidence": 0.99655497074127197,
            "end_tick": -1,
            "end_time": 4224.0,
            "hand": 0,
            "idx": 32,
            "note_id": 32,
            "pitch": 79,
            "spec_col": 124,
            "spec_row": 100,
            "src_spec_col": 122,
            "src_spec_row": 101,
            "start_tick": -1,
            "start_time": 3904.0,
            "velocity": 70
        },
        {
            "amplitude": 27.87462043762207,
            "confidence": 0.99836015701293945,
            "end_tick": -1,
            "end_time": 4672.0,
            "hand": 0,
            "idx": 33,
            "note_id": 33,
            "pitch": 78,
            "spec_col": 128,
            "spec_row": 94,
            "src_spec_col": 126,
            "src_spec_row": 95,
            "start_tick": -1,
            "start_time": 4032.0,
            "velocity": 70
        },
        {
            "amplitude": 22.321395874023438,
            "confidence": 0.99901753664016724,
            "end_tick": -1,
            "end_time": 4608.0,
            "hand": 0,
            "idx": 34,
            "note_id": 34,
            "pitch": 52,
            "spec_col": 133,
            "spec_row": 20,
            "src_spec_col": 130,
            "src_spec_row": 21,
            "start_tick": -1,
            "start_time": 4160.0,
            "velocity": 65
        },
        {
            "amplitude": 22.303308486938477,
            "confidence": 0.99851000308990479,
            "end_tick": -1,
            "end_time": 4704.0,
            "hand": 0,
            "idx": 35,
            "note_id": 35,
            "pitch": 76,
            "spec_col": 135,
            "spec_row": 84,
            "src_spec_col": 130,
            "src_spec_row": 85,
            "start_tick": -1,
            "start_time": 4160.0,
            "velocity": 72
        },
        {
            "amplitude": 19.00360107421875,
            "confidence": 0.99967175722122192,
            "end_tick": -1,
            "end_time": 4704.0,
            "hand": 0,
            "idx": 36,
            "note_id": 36,
            "pitch": 59,
            "spec_col": 140,
            "spec_row": 31,
            "src_spec_col": 138,
            "src_spec_row": 32,
            "start_tick": -1,
            "start_time": 4416.0,
            "velocity": 70
        },
        {
            "amplitude": 4.4003453254699707,
            "confidence": 0.0084996223449707031,
            "end_tick": -1,
            "end_time": 4512.0,
            "hand": 0,
            "idx": 37,
            "note_id": 37,
            "pitch": 83,
            "spec_col": 140,
            "spec_row": 126,
            "src_spec_col": 140,
            "src_spec_row": 127,
            "start_tick": -1,
            "start_time": 4480.0,
            "velocity": 58
        },
        {
            "amplitude": 24.121835708618164,
            "confidence": 0.99956595897674561,
            "end_tick": -1,
            "end_time": 5248.0,
            "hand": 0,
            "idx": 38,
            "note_id": 38,
            "pitch": 64,
            "spec_col": 149,
            "spec_row": 41,
            "src_spec_col": 146,
            "src_spec_row": 43,
            "start_tick": -1,
            "start_time": 4672.0,
            "velocity": 66
        },
        {
            "amplitude": 17.23828125,
            "confidence": 0.013810992240905762,
            "end_tick": -1,
            "end_time": 5760.0,
            "hand": 0,
            "idx": 39,
            "note_id": 39,
            "pitch": 76,
            "spec_col": 148,
            "spec_row": 83,
            "src_spec_col": 147,
            "src_spec_row": 85,
            "start_tick": -1,
            "start_time": 4704.0,
            "velocity": 66
        },
        {
            "amplitude": 21.976448059082031,
            "confidence": 0.998576819896698,
            "end_tick": -1,
            "end_time": 5824.0,
            "hand": 0,
            "idx": 40,
            "note_id": 40,
            "pitch": 50,
            "spec_col": 166,
            "spec_row": 18,
            "src_spec_col": 162,
            "src_spec_row": 19,
            "start_tick": -1,
            "start_time": 5184.0,
            "velocity": 63
        },
        {
            "amplitude": 21.700441360473633,
            "confidence": 0.99787819385528564,
            "end_tick": -1,
            "end_time": 5600.0,
            "hand": 0,
            "idx": 41,
            "note_id": 41,
            "pitch": 81,
            "spec_col": 164,
            "spec_row": 112,
            "src_spec_col": 162,
            "src_spec_row": 113,
            "start_tick": -1,
            "start_time": 5184.0,
            "velocity": 74
        },
        {
            "amplitude": 8.2199745178222656,
            "confidence": 0.0062220096588134766,
            "end_tick": -1,
            "end_time": 5280.0,
            "hand": 0,
            "idx": 42,
            "note_id": 42,
            "pitch": 69,
            "spec_col": 164,
            "spec_row": 55,
            "src_spec_col": 163,
            "src_spec_row": 57,
            "start_tick": -1,
            "start_time": 5216.0,
            "velocity": 66
        },
        {
            "amplitude": 9.7623395919799805,
            "confidence": 0.012052774429321289,
            "end_tick": -1,
            "end_time": 5280.0,
            "hand": 0,
            "idx": 43,
            "note_id": 43,
            "pitch": 74,
            "spec_col": 164,
            "spec_row": 74,
            "src_spec_col": 164,
            "src_spec_row": 76,
            "start_tick": -1,
            "start_time": 5248.0,
            "velocity": 66
        },
        {
            "amplitude": 27.073324203491211,
            "confidence": 0.99776017665863037,
            "end_tick": -1,
            "end_time": 6048.0,
            "hand": 0,
            "idx": 44,
            "note_id": 44,
            "pitch": 79,
            "spec_col": 173,
            "spec_row": 100,
            "src_spec_col": 170,
            "src_spec_row": 101,
            "start_tick": -1,
            "start_time": 5440.0,
            "velocity": 71
        },
        {
            "amplitude": 18.693634033203125,
            "confidence": 0.99240601062774658,
            "end_tick": -1,
            "end_time": 5888.0,
            "hand": 0,
            "idx": 45,
            "note_id": 45,
            "pitch": 57,
            "spec_col": 173,
            "spec_row": 27,
            "src_spec_col": 171,
            "src_spec_row": 29,
            "start_tick": -1,
            "start_time": 5472.0,
            "velocity": 66
        },
        {
            "amplitude": 21.437761306762695,
            "confidence": 0.99817121028900146,
            "end_tick": -1,
            "end_time": 6208.0,
            "hand": 0,
            "idx": 46,
            "note_id": 46,
            "pitch": 81,
            "spec_col": 176,
            "spec_row": 112,
            "src_spec_col": 175,
            "src_spec_row": 113,
            "start_tick": -1,
            "start_time": 5600.0,
            "velocity": 76
        },
        {
            "amplitude": 24.224891662597656,
            "confidence": 0.99802953004837036,
            "end_tick": -1,
            "end_time": 6752.0,
            "hand": 0,
            "idx": 47,
            "note_id": 47,
            "pitch": 62,
            "spec_col": 181,
            "spec_row": 37,
            "src_spec_col": 179,
            "src_spec_row": 38,
            "start_tick": -1,
            "start_time": 5728.0,
            "velocity": 66
        },
        {
            "amplitude": 21.392124176025391,
            "confidence": 0.99755764007568359,
            "end_tick": -1,
            "end_time": 6464.0,
            "hand": 0,
            "idx": 48,
            "note_id": 48,
            "pitch": 83,
            "spec_col": 181,
            "spec_row": 126,
            "src_spec_col": 179,
            "src_spec_row": 127,
            "start_tick": -1,
            "start_time": 5728.0,
            "velocity": 73
        },
        {
            "amplitude": 23.402177810668945,
            "confidence": 0.99831563234329224,
            "end_tick": -1,
            "end_time": 6368.0,
            "hand": 0,
            "idx": 49,
            "note_id": 49,
            "pitch": 86,
            "spec_col": 189,
            "spec_row": 150,
            "src_spec_col": 187,
            "src_spec_row": 151,
            "start_tick": -1,
            "start_time": 5984.0,
            "velocity": 75
        },
        {
            "amplitude": 21.982128143310547,
            "confidence": 0.99959474802017212,
            "end_tick": -1,
            "end_time": 6720.0,
            "hand": 0,
            "idx": 50,
            "note_id": 50,
            "pitch": 50,
            "spec_col": 198,
            "spec_row": 18,
            "src_spec_col": 195,
            "src_spec_row": 19,
            "start_tick": -1,
            "start_time": 6240.0,
            "velocity": 64
        },
        {
            "amplitude": 21.805124282836914,
            "confidence": 0.99769330024719238,
            "end_tick": -1,
            "end_time": 6592.0,
            "hand": 0,
            "idx": 51,
            "note_id": 51,
            "pitch": 81,
            "spec_col": 197,
            "spec_row": 112,
            "src_spec_col": 195,
            "src_spec_row": 113,
            "start_tick": -1,
            "start_time": 6240.0,
            "velocity": 75
        },
        {
            "amplitude": 23.3331298828125,
            "confidence": 0.9978022575378418,
            "end_tick": -1,
            "end_time": 7104.0,
            "hand": 0,
            "idx": 52,
            "note_id": 52,
            "pitch": 86,
            "spec_col": 202,
            "spec_row": 150,
            "src_spec_col": 199,
            "src_spec_row": 151,
            "start_tick": -1,
            "start_time": 6368.0,
            "velocity": 73
        },
        {
            "amplitude": 18.446657180786133,
            "confidence": 0.99726295471191406,
            "end_tick": -1,
            "end_time": 7008.0,
            "hand": 0,
            "idx": 53,
            "note_id": 53,
            "pitch": 57,
            "spec_col": 207,
            "spec_row": 27,
            "src_spec_col": 203,
            "src_spec_row": 29,
            "start_tick": -1,
            "start_time": 6496.0,
            "velocity": 60
        },
        {
            "amplitude": 21.942375183105469,
            "confidence": 0.99895882606506348,
            "end_tick": -1,
            "end_time": 7040.0,
            "hand": 0,
            "idx": 54,
            "note_id": 54,
            "pitch": 83,
            "spec_col": 205,
            "spec_row": 126,
            "src_spec_col": 203,
            "src_spec_row": 127,
            "start_tick": -1,
            "start_time": 6496.0,
            "velocity": 75
        },
        {
            "amplitude": 22.682283401489258,
            "confidence": 0.9987524151802063,
            "end_tick": -1,
            "end_time": 7168.0,
            "hand": 0,
            "idx": 55,
            "note_id": 55,
            "pitch": 81,
            "spec_col": 209,
            "spec_row": 112,
            "src_spec_col": 207,
            "src_spec_row": 113,
            "start_tick": -1,
            "start_time": 6624.0,
            "velocity": 74
        },
        {
            "amplitude": 24.201236724853516,
            "confidence": 0.99948585033416748,
            "end_tick": -1,
            "end_time": 7424.0,
            "hand": 0,
            "idx": 56,
            "note_id": 56,
            "pitch": 62,
            "spec_col": 214,
            "spec_row": 37,
            "src_spec_col": 211,
            "src_spec_row": 38,
            "start_tick": -1,
            "start_time": 6752.0,
            "velocity": 65
        },
        {
            "amplitude": 26.93382453918457,
            "confidence": 0.99908757209777832,
            "end_tick": -1,
            "end_time": 7136.0,
            "hand": 0,
            "idx": 57,
            "note_id": 57,
            "pitch": 79,
            "spec_col": 214,
            "spec_row": 100,
            "src_spec_col": 211,
            "src_spec_row": 101,
            "start_tick": -1,
            "start_time": 6752.0,
            "velocity": 71
        },
        {
            "amplitude": 27.911781311035156,
            "confidence": 0.96975898742675781,
            "end_tick": -1,
            "end_time": 7424.0,
            "hand": 0,
            "idx": 58,
            "note_id": 58,
            "pitch": 78,
            "spec_col": 218,
            "spec_row": 94,
            "src_spec_col": 215,
            "src_spec_row": 95,
            "start_tick": -1,
            "start_time": 6880.0,
            "velocity": 68
        },
        {
            "amplitude": 22.318010330200195,
            "confidence": 0.99747371673583984,
            "end_tick": -1,
            "end_time": 7584.0,
            "hand": 0,
            "idx": 59,
            "note_id": 59,
            "pitch": 76,
            "spec_col": 223,
            "spec_row": 84,
            "src_spec_col": 220,
            "src_spec_row": 85,
            "start_tick": -1,
            "start_time": 7040.0,
            "velocity": 70
        },
        {
            "amplitude": 22.291152954101562,
            "confidence": 0.99809491634368896,
            "end_tick": -1,
            "end_time": 8384.0,
            "hand": 0,
            "idx": 60,
            "note_id": 60,
            "pitch": 74,
            "spec_col": 227,
            "spec_row": 74,
            "src_spec_col": 224,
            "src_spec_row": 76,
            "start_tick": -1,
            "start_time": 7168.0,
            "velocity": 71
        },
        {
            "amplitude": 22.381124496459961,
            "confidence": 0.99454808235168457,
            "end_tick": -1,
            "end_time": 7872.0,
            "hand": 0,
            "idx": 61,
            "note_id": 61,
            "pitch": 45,
            "spec_col": 230,
            "spec_row": 13,
            "src_spec_col": 227,
            "src_spec_row": 15,
            "start_tick": -1,
            "start_time": 7264.0,
            "velocity": 57
        },
        {
            "amplitude": 22.475578308105469,
            "confidence": 0.99110114574432373,
            "end_tick": -1,
            "end_time": 7872.0,
            "hand": 0,
            "idx": 62,
            "note_id": 62,
            "pitch": 69,
            "spec_col": 230,
            "spec_row": 55,
            "src_spec_col": 228,
            "src_spec_row": 57,
            "start_tick": -1,
            "start_time": 7296.0,
            "velocity": 70
        },
        {
            "amplitude": 21.815946578979492,
            "confidence": 0.00601157546043396,
            "end_tick": -1,
            "end_time": 7808.0,
            "hand": 0,
            "idx": 63,
            "note_id": 63,
            "pitch": 57,
            "spec_col": 230,
            "spec_row": 27,
            "src_spec_col": 229,
            "src_spec_row": 29,
            "start_tick": -1,
            "start_time": 7328.0,
            "velocity": 62
        },
        {
            "amplitude": 22.218648910522461,
            "confidence": 0.99923723936080933,
            "end_tick": -1,
            "end_time": 7840.0,
            "hand": 0,
            "idx": 64,
            "note_id": 64,
            "pitch": 52,
            "spec_col": 239,
            "spec_row": 20,
            "src_spec_col": 236,
            "src_spec_row": 21,
            "start_tick": -1,
            "start_time": 7552.0,
            "velocity": 64
        },
        {
            "amplitude": 18.647987365722656,
            "confidence": 0.99957650899887085,
            "end_tick": -1,
            "end_time": 8256.0,
            "hand": 0,
            "idx": 65,
            "note_id": 65,
            "pitch": 57,
            "spec_col": 246,
            "spec_row": 27,
            "src_spec_col": 244,
            "src_spec_row": 29,
            "start_tick": -1,
            "start_time": 7808.0,
            "velocity": 65
        },
        {
            "amplitude": 15.000972747802734,
            "confidence": 0.0082701146602630615,
            "end_tick": -1,
            "end_time": 8320.0,
            "hand": 0,
            "idx": 66,
            "note_id": 66,
            "pitch": 69,
            "spec_col": 247,
            "spec_row": 55,
            "src_spec_col": 246,
            "src_spec_row": 57,
            "start_tick": -1,
            "start_time": 7872.0,
            "velocity": 50
        },
        {
            "amplitude": 21.888631820678711,
            "confidence": 0.99939900636672974,
            "end_tick": -1,
            "end_time": 8640.0,
            "hand": 0,
            "idx": 67,
            "note_id": 67,
            "pitch": 50,
            "spec_col": 264,
            "spec_row": 18,
            "src_spec_col": 260,
            "src_spec_row": 19,
            "start_tick": -1,
            "start_time": 8320.0,
            "velocity": 64
        },
        {
            "amplitude": 11.105857849121094,
            "confidence": 0.10078385472297668,
            "end_tick": -1,
            "end_time": 9024.0,
            "hand": 0,
            "idx": 68,
            "note_id": 68,
            "pitch": 69,
            "spec_col": 264,
            "spec_row": 55,
            "src_spec_col": 260,
            "src_spec_row": 57,
            "start_tick": -1,
            "start_time": 8320.0,
            "velocity": 64
        },
        {
            "amplitude": 21.797496795654297,
            "confidence": 0.93526095151901245,
            "end_tick": -1,
            "end_time": 9792.0,
            "hand": 0,
            "idx": 69,
            "note_id": 69,
            "pitch": 81,
            "spec_col": 262,
            "spec_row": 112,
            "src_spec_col": 260,
            "src_spec_row": 113,
            "start_tick": -1,
            "start_time": 8320.0,
            "velocity": 74
        },
        {
            "amplitude": 11.760082244873047,
            "confidence": 0.011169612407684326,
            "end_tick": -1,
            "end_time": 9216.0,
            "hand": 0,
            "idx": 70,
            "note_id": 70,
            "pitch": 74,
            "spec_col": 263,
            "spec_row": 74,
            "src_spec_col": 262,
            "src_spec_row": 76,
            "start_tick": -1,
            "start_time": 8384.0,
            "velocity": 66
        },
        {
            "amplitude": 18.602752685546875,
            "confidence": 0.99794131517410278,
            "end_tick": -1,
            "end_time": 8928.0,
            "hand": 0,
            "idx": 71,
            "note_id": 71,
            "pitch": 57,
            "spec_col": 271,
            "spec_row": 27,
            "src_spec_col": 268,
            "src_spec_row": 29,
            "start_tick": -1,
            "start_time": 8576.0,
            "velocity": 62
        },
        {
            "amplitude": 27.410041809082031,
            "confidence": 0.98669284582138062,
            "end_tick": -1,
            "end_time": 9280.0,
            "hand": 0,
            "idx": 72,
            "note_id": 72,
            "pitch": 71,
            "spec_col": 271,
            "spec_row": 62,
            "src_spec_col": 268,
            "src_spec_row": 64,
            "start_tick": -1,
            "start_time": 8576.0,
            "velocity": 69
        },
        {
            "amplitude": 24.250949859619141,
            "confidence": 0.99227207899093628,
            "end_tick": -1,
            "end_time": 9248.0,
            "hand": 0,
            "idx": 73,
            "note_id": 73,
            "pitch": 62,
            "spec_col": 279,
            "spec_row": 37,
            "src_spec_col": 276,
            "src_spec_row": 38,
            "start_tick": -1,
            "start_time": 8832.0,
            "velocity": 63
        },
        {
            "amplitude": 23.651336669921875,
            "confidence": 0.99788355827331543,
            "end_tick": -1,
            "end_time": 9664.0,
            "hand": 0,
            "idx": 74,
            "note_id": 74,
            "pitch": 69,
            "spec_col": 287,
            "spec_row": 55,
            "src_spec_col": 285,
            "src_spec_row": 57,
            "start_tick": -1,
            "start_time": 9120.0,
            "velocity": 68
        },
        {
            "amplitude": 20.480207443237305,
            "confidence": 0.99709641933441162,
            "end_tick": -1,
            "end_time": 9504.0,
            "hand": 0,
            "idx": 75,
            "note_id": 75,
            "pitch": 74,
            "spec_col": 295,
            "spec_row": 74,
            "src_spec_col": 293,
            "src_spec_row": 76,
            "start_tick": -1,
            "start_time": 9376.0,
            "velocity": 69
        },
        {
            "amplitude": 22.414567947387695,
            "confidence": 0.96643471717834473,
            "end_tick": -1,
            "end_time": 9760.0,
            "hand": 0,
            "idx": 76,
            "note_id": 76,
            "pitch": 74,
            "spec_col": 299,
            "spec_row": 74,
            "src_spec_col": 297,
            "src_spec_row": 76,
            "start_tick": -1,
            "start_time": 9504.0,
            "velocity": 65
        },
        {
            "amplitude": 27.5194091796875,
            "confidence": 0.99772822856903076,
            "end_tick": -1,
            "end_time": 9952.0,
            "hand": 0,
            "idx": 77,
            "note_id": 77,
            "pitch": 73,
            "spec_col": 304,
            "spec_row": 70,
            "src_spec_col": 301,
            "src_spec_row": 71,
            "start_tick": -1,
            "start_time": 9632.0,
            "velocity": 66
        },
        {
            "amplitude": 21.910228729248047,
            "confidence": 0.99806118011474609,
            "end_tick": -1,
            "end_time": 10336.0,
            "hand": 0,
            "idx": 78,
            "note_id": 78,
            "pitch": 74,
            "spec_col": 309,
            "spec_row": 74,
            "src_spec_col": 305,
            "src_spec_row": 76,
            "start_tick": -1,
            "start_time": 9760.0,
            "velocity": 67
        },
        {
            "amplitude": 22.090690612792969,
            "confidence": 0.99749422073364258,
            "end_tick": -1,
            "end_time": 10304.0,
            "hand": 0,
            "idx": 79,
            "note_id": 79,
            "pitch": 52,
            "spec_col": 312,
            "spec_row": 20,
            "src_spec_col": 309,
            "src_spec_row": 21,
            "start_tick": -1,
            "start_time": 9888.0,
            "velocity": 67
        },
        {
            "amplitude": 19.104362487792969,
            "confidence": 0.99793988466262817,
            "end_tick": -1,
            "end_time": 10816.0,
            "hand": 0,
            "idx": 80,
            "note_id": 80,
            "pitch": 57,
            "spec_col": 315,
            "spec_row": 27,
            "src_spec_col": 309,
            "src_spec_row": 29,
            "start_tick": -1,
            "start_time": 9888.0,
            "velocity": 67
        },
        {
            "amplitude": 24.314277648925781,
            "confidence": 0.98416447639465332,
            "end_tick": -1,
            "end_time": 10976.0,
            "hand": 0,
            "idx": 81,
            "note_id": 81,
            "pitch": 76,
            "spec_col": 314,
            "spec_row": 84,
            "src_spec_col": 309,
            "src_spec_row": 85,
            "start_tick": -1,
            "start_time": 9888.0,
            "velocity": 71
        },
        {
            "amplitude": 22.597496032714844,
            "confidence": 0.99139690399169922,
            "end_tick": -1,
            "end_time": 10528.0,
            "hand": 0,
            "idx": 82,
            "note_id": 82,
            "pitch": 45,
            "spec_col": 320,
            "spec_row": 13,
            "src_spec_col": 317,
            "src_spec_row": 15,
            "start_tick": -1,
            "start_time": 10144.0,
            "velocity": 59
        },
        {
            "amplitude": 21.747488021850586,
            "confidence": 0.99605661630630493,
            "end_tick": -1,
            "end_time": 10688.0,
            "hand": 0,
            "idx": 83,
            "note_id": 83,
            "pitch": 81,
            "spec_col": 327,
            "spec_row": 112,
            "src_spec_col": 325,
            "src_spec_row": 113,
            "start_tick": -1,
            "start_time": 10400.0,
            "velocity": 72
        },
        {
            "amplitude": 20.310552597045898,
            "confidence": 0.99437117576599121,
            "end_tick": -1,
            "end_time": 11072.0,
            "hand": 0,
            "idx": 84,
            "note_id": 84,
            "pitch": 81,
            "spec_col": 336,
            "spec_row": 112,
            "src_spec_col": 334,
            "src_spec_row": 113,
            "start_tick": -1,
            "start_time": 10688.0,
            "velocity": 69
        },
        {
            "amplitude": -0.23955029249191284,
            "confidence": 0.09038051962852478,
            "end_tick": -1,
            "end_time": 11040.0,
            "hand": 0,
            "idx": 85,
            "note_id": 85,
            "pitch": 40,
            "spec_col": 344,
            "spec_row": 13,
            "src_spec_col": 342,
            "src_spec_row": 11,
            "start_tick": -1,
            "start_time": 10944.0,
            "velocity": 60
        },
        {
            "amplitude": 21.912031173706055,
            "confidence": 0.9958270788192749,
            "end_tick": -1,
            "end_time": 11264.0,
            "hand": 0,
            "idx": 86,
            "note_id": 86,
            "pitch": 52,
            "spec_col": 345,
            "spec_row": 20,
            "src_spec_col": 342,
            "src_spec_row": 21,
            "start_tick": -1,
            "start_time": 10944.0,
            "velocity": 60
        },
        {
            "amplitude": 19.354471206665039,
            "confidence": 0.9985954761505127,
            "end_tick": -1,
            "end_time": 11200.0,
            "hand": 0,
            "idx": 87,
            "note_id": 87,
            "pitch": 59,
            "spec_col": 344,
            "spec_row": 31,
            "src_spec_col": 342,
            "src_spec_row": 32,
            "start_tick": -1,
            "start_time": 10944.0,
            "velocity": 68
        },
        {
            "amplitude": 20.97528076171875,
            "confidence": 0.99289160966873169,
            "end_tick": -1,
            "end_time": 11360.0,
            "hand": 0,
            "idx": 88,
            "note_id": 88,
            "pitch": 83,
            "spec_col": 343,
            "spec_row": 126,
            "src_spec_col": 342,
            "src_spec_row": 127,
            "start_tick": -1,
            "start_time": 10944.0,
            "velocity": 74
        },
        {
            "amplitude": 21.680097579956055,
            "confidence": 0.99795401096343994,
            "end_tick": -1,
            "end_time": 11456.0,
            "hand": 0,
            "idx": 89,
            "note_id": 89,
            "pitch": 81,
            "spec_col": 348,
            "spec_row": 112,
            "src_spec_col": 346,
            "src_spec_row": 113,
            "start_tick": -1,
            "start_time": 11072.0,
            "velocity": 74
        },
        {
            "amplitude": 26.917415618896484,
            "confidence": 0.99552702903747559,
            "end_tick": -1,
            "end_time": 11744.0,
            "hand": 0,
            "idx": 90,
            "note_id": 90,
            "pitch": 79,
            "spec_col": 352,
            "spec_row": 100,
            "src_spec_col": 350,
            "src_spec_row": 101,
            "start_tick": -1,
            "start_time": 11200.0,
            "velocity": 71
        },
        {
            "amplitude": 22.35719108581543,
            "confidence": 0.99882000684738159,
            "end_tick": -1,
            "end_time": 12000.0,
            "hand": 0,
            "idx": 91,
            "note_id": 91,
            "pitch": 45,
            "spec_col": 361,
            "spec_row": 13,
            "src_spec_col": 357,
            "src_spec_row": 15,
            "start_tick": -1,
            "start_time": 11424.0,
            "velocity": 37
        },
        {
            "amplitude": 22.121334075927734,
            "confidence": 0.99892890453338623,
            "end_tick": -1,
            "end_time": 13248.0,
            "hand": 0,
            "idx": 92,
            "note_id": 92,
            "pitch": 81,
            "spec_col": 360,
            "spec_row": 112,
            "src_spec_col": 358,
            "src_spec_row": 113,
            "start_tick": -1,
            "start_time": 11456.0,
            "velocity": 77
        },
        {
            "amplitude": 21.024406433105469,
            "confidence": 0.0055557489395141602,
            "end_tick": -1,
            "end_time": 11552.0,
            "hand": 0,
            "idx": 93,
            "note_id": 93,
            "pitch": 57,
            "spec_col": 360,
            "spec_row": 27,
            "src_spec_col": 360,
            "src_spec_row": 29,
            "start_tick": -1,
            "start_time": 11520.0,
            "velocity": 59
        },
        {
            "amplitude": 22.292850494384766,
            "confidence": 0.99978303909301758,
            "end_tick": -1,
            "end_time": 12032.0,
            "hand": 0,
            "idx": 94,
            "note_id": 94,
            "pitch": 52,
            "spec_col": 369,
            "spec_row": 20,
            "src_spec_col": 366,
            "src_spec_row": 21,
            "start_tick": -1,
            "start_time": 11712.0,
            "velocity": 64
        },
        {
            "amplitude": 18.705829620361328,
            "confidence": 0.99963200092315674,
            "end_tick": -1,
            "end_time": 12288.0,
            "hand": 0,
            "idx": 95,
            "note_id": 95,
            "pitch": 57,
            "spec_col": 377,
            "spec_row": 27,
            "src_spec_col": 374,
            "src_spec_row": 29,
            "start_tick": -1,
            "start_time": 11968.0,
            "velocity": 62
        },
        {
            "amplitude": 28.721992492675781,
            "confidence": 0.98225510120391846,
            "end_tick": -1,
            "end_time": 13120.0,
            "hand": 0,
            "idx": 96,
            "note_id": 96,
            "pitch": 47,
            "spec_col": 393,
            "spec_row": 15,
            "src_spec_col": 390,
            "src_spec_row": 16,
            "start_tick": -1,
            "start_time": 12480.0,
            "velocity": 55
        },
        {
            "amplitude": 23.501514434814453,
            "confidence": 0.98782789707183838,
            "end_tick": -1,
            "end_time": 13024.0,
            "hand": 0,
            "idx": 97,
            "note_id": 97,
            "pitch": 86,
            "spec_col": 393,
            "spec_row": 150,
            "src_spec_col": 390,
            "src_spec_row": 151,
            "start_tick": -1,
            "start_time": 12480.0,
            "velocity": 72
        },
        {
            "amplitude": 17.492301940917969,
            "confidence": 0.9993293285369873,
            "end_tick": -1,
            "end_time": 13120.0,
            "hand": 0,
            "idx": 98,
            "note_id": 98,
            "pitch": 54,
            "spec_col": 402,
            "spec_row": 23,
            "src_spec_col": 399,
            "src_spec_row": 24,
            "start_tick": -1,
            "start_time": 12768.0,
            "velocity": 67
        },
        {
            "amplitude": 21.685213088989258,
            "confidence": 0.99750548601150513,
            "end_tick": -1,
            "end_time": 13760.0,
            "hand": 0,
            "idx": 99,
            "note_id": 99,
            "pitch": 83,
            "spec_col": 405,
            "spec_row": 126,
            "src_spec_col": 403,
            "src_spec_row": 127,
            "start_tick": -1,
            "start_time": 12896.0,
            "velocity": 76
        },
        {
            "amplitude": 19.283729553222656,
            "confidence": 0.99944925308227539,
            "end_tick": -1,
            "end_time": 13312.0,
            "hand": 0,
            "idx": 100,
            "note_id": 100,
            "pitch": 59,
            "spec_col": 409,
            "spec_row": 31,
            "src_spec_col": 407,
            "src_spec_row": 32,
            "start_tick": -1,
            "start_time": 13024.0,
            "velocity": 69
        },
        {
            "amplitude": 23.252592086791992,
            "confidence": 0.99936807155609131,
            "end_tick": -1,
            "end_time": 13280.0,
            "hand": 0,
            "idx": 101,
            "note_id": 101,
            "pitch": 86,
            "spec_col": 410,
            "spec_row": 150,
            "src_spec_col": 407,
            "src_spec_row": 151,
            "start_tick": -1,
            "start_time": 13024.0,
            "velocity": 72
        },
        {
            "amplitude": 23.470283508300781,
            "confidence": 0.99867188930511475,
            "end_tick": -1,
            "end_time": 13792.0,
            "hand": 0,
            "idx": 102,
            "note_id": 102,
            "pitch": 86,
            "spec_col": 418,
            "spec_row": 150,
            "src_spec_col": 415,
            "src_spec_row": 151,
            "start_tick": -1,
            "start_time": 13280.0,
            "velocity": 71
        },
        {
            "amplitude": 21.970159530639648,
            "confidence": 0.99948269128799438,
            "end_tick": -1,
            "end_time": 14112.0,
            "hand": 0,
            "idx": 103,
            "note_id": 103,
            "pitch": 50,
            "spec_col": 427,
            "spec_row": 18,
            "src_spec_col": 423,
            "src_spec_row": 19,
            "start_tick": -1,
            "start_time": 13536.0,
            "velocity": 64
        },
        {
            "amplitude": 21.908578872680664,
            "confidence": 0.99737507104873657,
            "end_tick": -1,
            "end_time": 14336.0,
            "hand": 0,
            "idx": 104,
            "note_id": 104,
            "pitch": 81,
            "spec_col": 425,
            "spec_row": 112,
            "src_spec_col": 423,
            "src_spec_row": 113,
            "start_tick": -1,
            "start_time": 13536.0,
            "velocity": 74
        },
        {
            "amplitude": 18.473825454711914,
            "confidence": 0.99737691879272461,
            "end_tick": -1,
            "end_time": 14272.0,
            "hand": 0,
            "idx": 105,
            "note_id": 105,
            "pitch": 57,
            "spec_col": 434,
            "spec_row": 27,
            "src_spec_col": 431,
            "src_spec_row": 29,
            "start_tick": -1,
            "start_time": 13792.0,
            "velocity": 61
        },
        {
            "amplitude": 23.568748474121094,
            "confidence": 0.99881148338317871,
            "end_tick": -1,
            "end_time": 14880.0,
            "hand": 0,
            "idx": 106,
            "note_id": 106,
            "pitch": 86,
            "spec_col": 434,
            "spec_row": 150,
            "src_spec_col": 431,
            "src_spec_row": 151,
            "start_tick": -1,
            "start_time": 13792.0,
            "velocity": 73
        },
        {
            "amplitude": 24.36271858215332,
            "confidence": 0.98707222938537598,
            "end_tick": -1,
            "end_time": 14848.0,
            "hand": 0,
            "idx": 107,
            "note_id": 107,
            "pitch": 62,
            "spec_col": 442,
            "spec_row": 37,
            "src_spec_col": 439,
            "src_spec_row": 38,
            "start_tick": -1,
            "start_time": 14048.0,
            "velocity": 62
        },
        {
            "amplitude": 21.786455154418945,
            "confidence": 0.99515783786773682,
            "end_tick": -1,
            "end_time": 15008.0,
            "hand": 0,
            "idx": 108,
            "note_id": 108,
            "pitch": 83,
            "spec_col": 441,
            "spec_row": 126,
            "src_spec_col": 439,
            "src_spec_row": 127,
            "start_tick": -1,
            "start_time": 14048.0,
            "velocity": 72
        },
        {
            "amplitude": 21.809961318969727,
            "confidence": 0.99851763248443604,
            "end_tick": -1,
            "end_time": 15392.0,
            "hand": 0,
            "idx": 109,
            "note_id": 109,
            "pitch": 81,
            "spec_col": 450,
            "spec_row": 112,
            "src_spec_col": 448,
            "src_spec_row": 113,
            "start_tick": -1,
            "start_time": 14336.0,
            "velocity": 74
        },
        {
            "amplitude": 18.070064544677734,
            "confidence": 0.9991912841796875,
            "end_tick": -1,
            "end_time": 15136.0,
            "hand": 0,
            "idx": 110,
            "note_id": 110,
            "pitch": 55,
            "spec_col": 459,
            "spec_row": 24,
            "src_spec_col": 456,
            "src_spec_row": 25,
            "start_tick": -1,
            "start_time": 14592.0,
            "velocity": 66
        },
        {
            "amplitude": 26.078691482543945,
            "confidence": 0.99767982959747314,
            "end_tick": -1,
            "end_time": 14848.0,
            "hand": 0,
            "idx": 111,
            "note_id": 111,
            "pitch": 79,
            "spec_col": 458,
            "spec_row": 100,
            "src_spec_col": 456,
            "src_spec_row": 101,
            "start_tick": -1,
            "start_time": 14592.0,
            "velocity": 72
        },
        {
            "amplitude": 24.201173782348633,
            "confidence": 0.99921315908432007,
            "end_tick": -1,
            "end_time": 15328.0,
            "hand": 0,
            "idx": 112,
            "note_id": 112,
            "pitch": 62,
            "spec_col": 466,
            "spec_row": 37,
            "src_spec_col": 464,
            "src_spec_row": 38,
            "start_tick": -1,
            "start_time": 14848.0,
            "velocity": 69
        },
        {
            "amplitude": 26.658351898193359,
            "confidence": 0.99765467643737793,
            "end_tick": -1,
            "end_time": 15104.0,
            "hand": 0,
            "idx": 113,
            "note_id": 113,
            "pitch": 79,
            "spec_col": 466,
            "spec_row": 100,
            "src_spec_col": 464,
            "src_spec_row": 101,
            "start_tick": -1,
            "start_time": 14848.0,
            "velocity": 70
        },
        {
            "amplitude": 24.134622573852539,
            "confidence": 0.99965739250183105,
            "end_tick": -1,
            "end_time": 15488.0,
            "hand": 0,
            "idx": 114,
            "note_id": 114,
            "pitch": 64,
            "spec_col": 475,
            "spec_row": 41,
            "src_spec_col": 472,
            "src_spec_row": 43,
            "start_tick": -1,
            "start_time": 15104.0,
            "velocity": 67
        },
        {
            "amplitude": 26.672473907470703,
            "confidence": 0.99869626760482788,
            "end_tick": -1,
            "end_time": 15360.0,
            "hand": 0,
            "idx": 115,
            "note_id": 115,
            "pitch": 79,
            "spec_col": 475,
            "spec_row": 100,
            "src_spec_col": 472,
            "src_spec_row": 101,
            "start_tick": -1,
            "start_time": 15104.0,
            "velocity": 70
        },
        {
            "amplitude": 26.825868606567383,
            "confidence": 0.99533951282501221,
            "end_tick": -1,
            "end_time": 16064.0,
            "hand": 0,
            "idx": 116,
            "note_id": 116,
            "pitch": 79,
            "spec_col": 483,
            "spec_row": 100,
            "src_spec_col": 480,
            "src_spec_row": 101,
            "start_tick": -1,
            "start_time": 15360.0,
            "velocity": 68
        },
        {
            "amplitude": 22.240461349487305,
            "confidence": 0.99915468692779541,
            "end_tick": -1,
            "end_time": 16000.0,
            "hand": 0,
            "idx": 117,
            "note_id": 117,
            "pitch": 52,
            "spec_col": 491,
            "spec_row": 20,
            "src_spec_col": 488,
            "src_spec_row": 21,
            "start_tick": -1,
            "start_time": 15616.0,
            "velocity": 64
        },
        {
            "amplitude": 21.35405158996582,
            "confidence": 0.99693191051483154,
            "end_tick": -1,
            "end_time": 16160.0,
            "hand": 0,
            "idx": 118,
            "note_id": 118,
            "pitch": 76,
            "spec_col": 493,
            "spec_row": 84,
            "src_spec_col": 488,
            "src_spec_row": 85,
            "start_tick": -1,
            "start_time": 15616.0,
            "velocity": 72
        },
        {
            "amplitude": 18.676126480102539,
            "confidence": 0.01102149486541748,
            "end_tick": -1,
            "end_time": 15840.0,
            "hand": 0,
            "idx": 119,
            "note_id": 119,
            "pitch": 64,
            "spec_col": 491,
            "spec_row": 41,
            "src_spec_col": 489,
            "src_spec_row": 43,
            "start_tick": -1,
            "start_time": 15648.0,
            "velocity": 63
        },
        {
            "amplitude": 21.572568893432617,
            "confidence": 0.98535197973251343,
            "end_tick": -1,
            "end_time": 16608.0,
            "hand": 0,
            "idx": 120,
            "note_id": 120,
            "pitch": 81,
            "spec_col": 499,
            "spec_row": 112,
            "src_spec_col": 496,
            "src_spec_row": 113,
            "start_tick": -1,
            "start_time": 15872.0,
            "velocity": 71
        },
        {
            "amplitude": 19.114791870117188,
            "confidence": 0.99901974201202393,
            "end_tick": -1,
            "end_time": 16192.0,
            "hand": 0,
            "idx": 121,
            "note_id": 121,
            "pitch": 59,
            "spec_col": 499,
            "spec_row": 31,
            "src_spec_col": 497,
            "src_spec_row": 32,
            "start_tick": -1,
            "start_time": 15904.0,
            "velocity": 67
        },
        {
            "amplitude": 24.019210815429688,
            "confidence": 0.99744021892547607,
            "end_tick": -1,
            "end_time": 16512.0,
            "hand": 0,
            "idx": 122,
            "note_id": 122,
            "pitch": 64,
            "spec_col": 507,
            "spec_row": 41,
            "src_spec_col": 505,
            "src_spec_row": 43,
            "start_tick": -1,
            "start_time": 16160.0,
            "velocity": 66
        },
        {
            "amplitude": 25.314888000488281,
            "confidence": 0.99130785465240479,
            "end_tick": -1,
            "end_time": 16640.0,
            "hand": 0,
            "idx": 123,
            "note_id": 123,
            "pitch": 76,
            "spec_col": 507,
            "spec_row": 84,
            "src_spec_col": 505,
            "src_spec_row": 85,
            "start_tick": -1,
            "start_time": 16160.0,
            "velocity": 69
        },
        {
            "amplitude": 21.948554992675781,
            "confidence": 0.99890375137329102,
            "end_tick": -1,
            "end_time": 16800.0,
            "hand": 0,
            "idx": 124,
            "note_id": 124,
            "pitch": 74,
            "spec_col": 516,
            "spec_row": 74,
            "src_spec_col": 513,
            "src_spec_row": 76,
            "start_tick": -1,
            "start_time": 16416.0,
            "velocity": 70
        },
        {
            "amplitude": 22.219659805297852,
            "confidence": 0.9992671012878418,
            "end_tick": -1,
            "end_time": 17056.0,
            "hand": 0,
            "idx": 125,
            "note_id": 125,
            "pitch": 76,
            "spec_col": 524,
            "spec_row": 84,
            "src_spec_col": 521,
            "src_spec_row": 85,
            "start_tick": -1,
            "start_time": 16672.0,
            "velocity": 71
        },
        {
            "amplitude": 21.931253433227539,
            "confidence": 0.99834716320037842,
            "end_tick": -1,
            "end_time": 17056.0,
            "hand": 0,
            "idx": 126,
            "note_id": 126,
            "pitch": 74,
            "spec_col": 529,
            "spec_row": 74,
            "src_spec_col": 525,
            "src_spec_row": 76,
            "start_tick": -1,
            "start_time": 16800.0,
            "velocity": 68
        },
        {
            "amplitude": 27.813543319702148,
            "confidence": 0.99790525436401367,
            "end_tick": -1,
            "end_time": 17216.0,
            "hand": 0,
            "idx": 127,
            "note_id": 127,
            "pitch": 73,
            "spec_col": 532,
            "spec_row": 70,
            "src_spec_col": 529,
            "src_spec_row": 71,
            "start_tick": -1,
            "start_time": 16928.0,
            "velocity": 67
        },
        {
            "amplitude": 21.860446929931641,
            "confidence": 0.99259752035140991,
            "end_tick": -1,
            "end_time": 17632.0,
            "hand": 0,
            "idx": 128,
            "note_id": 128,
            "pitch": 74,
            "spec_col": 537,
            "spec_row": 74,
            "src_spec_col": 533,
            "src_spec_row": 76,
            "start_tick": -1,
            "start_time": 17056.0,
            "velocity": 67
        },
        {
            "amplitude": 22.145042419433594,
            "confidence": 0.99408221244812012,
            "end_tick": -1,
            "end_time": 17504.0,
            "hand": 0,
            "idx": 129,
            "note_id": 129,
            "pitch": 52,
            "spec_col": 540,
            "spec_row": 20,
            "src_spec_col": 537,
            "src_spec_row": 21,
            "start_tick": -1,
            "start_time": 17184.0,
            "velocity": 64
        },
        {
            "amplitude": 18.884431838989258,
            "confidence": 0.98906111717224121,
            "end_tick": -1,
            "end_time": 17504.0,
            "hand": 0,
            "idx": 130,
            "note_id": 130,
            "pitch": 59,
            "spec_col": 540,
            "spec_row": 31,
            "src_spec_col": 537,
            "src_spec_row": 32,
            "start_tick": -1,
            "start_time": 17184.0,
            "velocity": 65
        },
        {
            "amplitude": 21.477605819702148,
            "confidence": 0.99731487035751343,
            "end_tick": -1,
            "end_time": 17696.0,
            "hand": 0,
            "idx": 131,
            "note_id": 131,
            "pitch": 76,
            "spec_col": 542,
            "spec_row": 84,
            "src_spec_col": 537,
            "src_spec_row": 85,
            "start_tick": -1,
            "start_time": 17184.0,
            "velocity": 72
        },
        {
            "amplitude": 17.489189147949219,
            "confidence": 0.010457634925842285,
            "end_tick": -1,
            "end_time": 17280.0,
            "hand": 0,
            "idx": 132,
            "note_id": 132,
            "pitch": 64,
            "spec_col": 539,
            "spec_row": 41,
            "src_spec_col": 538,
            "src_spec_row": 43,
            "start_tick": -1,
            "start_time": 17216.0,
            "velocity": 66
        },
        {
            "amplitude": 22.351955413818359,
            "confidence": 0.98897254467010498,
            "end_tick": -1,
            "end_time": 18528.0,
            "hand": 0,
            "idx": 133,
            "note_id": 133,
            "pitch": 52,
            "spec_col": 557,
            "spec_row": 20,
            "src_spec_col": 553,
            "src_spec_row": 21,
            "start_tick": -1,
            "start_time": 17696.0,
            "velocity": 57
        },
        {
            "amplitude": 21.433320999145508,
            "confidence": 0.99389266967773438,
            "end_tick": -1,
            "end_time": 18240.0,
            "hand": 0,
            "idx": 134,
            "note_id": 134,
            "pitch": 76,
            "spec_col": 558,
            "spec_row": 84,
            "src_spec_col": 553,
            "src_spec_row": 85,
            "start_tick": -1,
            "start_time": 17696.0,
            "velocity": 66
        },
        {
            "amplitude": 19.024021148681641,
            "confidence": 0.99961221218109131,
            "end_tick": -1,
            "end_time": 18336.0,
            "hand": 0,
            "idx": 135,
            "note_id": 135,
            "pitch": 59,
            "spec_col": 565,
            "spec_row": 31,
            "src_spec_col": 562,
            "src_spec_row": 32,
            "start_tick": -1,
            "start_time": 17984.0,
            "velocity": 67
        },
        {
            "amplitude": 21.619941711425781,
            "confidence": 0.99661719799041748,
            "end_tick": -1,
            "end_time": 18784.0,
            "hand": 0,
            "idx": 136,
            "note_id": 136,
            "pitch": 81,
            "spec_col": 564,
            "spec_row": 112,
            "src_spec_col": 562,
            "src_spec_row": 113,
            "start_tick": -1,
            "start_time": 17984.0,
            "velocity": 74
        },
        {
            "amplitude": 23.861574172973633,
            "confidence": 0.99900603294372559,
            "end_tick": -1,
            "end_time": 18720.0,
            "hand": 0,
            "idx": 137,
            "note_id": 137,
            "pitch": 64,
            "spec_col": 573,
            "spec_row": 41,
            "src_spec_col": 570,
            "src_spec_row": 43,
            "start_tick": -1,
            "start_time": 18240.0,
            "velocity": 66
        },
        {
            "amplitude": 25.238838195800781,
            "confidence": 0.98596811294555664,
            "end_tick": -1,
            "end_time": 18752.0,
            "hand": 0,
            "idx": 138,
            "note_id": 138,
            "pitch": 76,
            "spec_col": 572,
            "spec_row": 84,
            "src_spec_col": 570,
            "src_spec_row": 85,
            "start_tick": -1,
            "start_time": 18240.0,
            "velocity": 70
        },
        {
            "amplitude": 21.889070510864258,
            "confidence": 0.99890702962875366,
            "end_tick": -1,
            "end_time": 18880.0,
            "hand": 0,
            "idx": 139,
            "note_id": 139,
            "pitch": 74,
            "spec_col": 582,
            "spec_row": 74,
            "src_spec_col": 578,
            "src_spec_row": 76,
            "start_tick": -1,
            "start_time": 18496.0,
            "velocity": 70
        },
        {
            "amplitude": 18.093376159667969,
            "confidence": 0.99850213527679443,
            "end_tick": -1,
            "end_time": 19040.0,
            "hand": 0,
            "idx": 140,
            "note_id": 140,
            "pitch": 56,
            "spec_col": 588,
            "spec_row": 25,
            "src_spec_col": 586,
            "src_spec_row": 27,
            "start_tick": -1,
            "start_time": 18752.0,
            "velocity": 65
        },
        {
            "amplitude": 22.189720153808594,
            "confidence": 0.99919295310974121,
            "end_tick": -1,
            "end_time": 19200.0,
            "hand": 0,
            "idx": 141,
            "note_id": 141,
            "pitch": 76,
            "spec_col": 590,
            "spec_row": 84,
            "src_spec_col": 586,
            "src_spec_row": 85,
            "start_tick": -1,
            "start_time": 18752.0,
            "velocity": 73
        },
        {
            "amplitude": 22.421871185302734,
            "confidence": 0.98629730939865112,
            "end_tick": -1,
            "end_time": 19200.0,
            "hand": 0,
            "idx": 142,
            "note_id": 142,
            "pitch": 74,
            "spec_col": 594,
            "spec_row": 74,
            "src_spec_col": 590,
            "src_spec_row": 76,
            "start_tick": -1,
            "start_time": 18880.0,
            "velocity": 70
        },
        {
            "amplitude": 24.337491989135742,
            "confidence": 0.98694360256195068,
            "end_tick": -1,
            "end_time": 19552.0,
            "hand": 0,
            "idx": 143,
            "note_id": 143,
            "pitch": 64,
            "spec_col": 597,
            "spec_row": 41,
            "src_spec_col": 594,
            "src_spec_row": 43,
            "start_tick": -1,
            "start_time": 19008.0,
            "velocity": 66
        },
        {
            "amplitude": 27.808799743652344,
            "confidence": 0.99628686904907227,
            "end_tick": -1,
            "end_time": 19328.0,
            "hand": 0,
            "idx": 144,
            "note_id": 144,
            "pitch": 73,
            "spec_col": 597,
            "spec_row": 70,
            "src_spec_col": 594,
            "src_spec_row": 71,
            "start_tick": -1,
            "start_time": 19008.0,
            "velocity": 70
        },
        {
            "amplitude": 27.347780227661133,
            "confidence": 0.99452757835388184,
            "end_tick": -1,
            "end_time": 19680.0,
            "hand": 0,
            "idx": 145,
            "note_id": 145,
            "pitch": 71,
            "spec_col": 601,
            "spec_row": 62,
            "src_spec_col": 599,
            "src_spec_row": 64,
            "start_tick": -1,
            "start_time": 19168.0,
            "velocity": 68
        },
        {
            "amplitude": 22.204675674438477,
            "confidence": 0.98426938056945801,
            "end_tick": -1,
            "end_time": 19840.0,
            "hand": 0,
            "idx": 146,
            "note_id": 146,
            "pitch": 52,
            "spec_col": 606,
            "spec_row": 20,
            "src_spec_col": 602,
            "src_spec_row": 21,
            "start_tick": -1,
            "start_time": 19264.0,
            "velocity": 58
        },
        {
            "amplitude": 23.603206634521484,
            "confidence": 0.99683332443237305,
            "end_tick": -1,
            "end_time": 19744.0,
            "hand": 0,
            "idx": 147,
            "note_id": 147,
            "pitch": 69,
            "spec_col": 605,
            "spec_row": 55,
            "src_spec_col": 603,
            "src_spec_row": 57,
            "start_tick": -1,
            "start_time": 19296.0,
            "velocity": 69
        },
        {
            "amplitude": 23.846006393432617,
            "confidence": 0.99826407432556152,
            "end_tick": -1,
            "end_time": 19808.0,
            "hand": 0,
            "idx": 148,
            "note_id": 148,
            "pitch": 64,
            "spec_col": 613,
            "spec_row": 41,
            "src_spec_col": 611,
            "src_spec_row": 43,
            "start_tick": -1,
            "start_time": 19552.0,
            "velocity": 68
        },
        {
            "amplitude": 24.376052856445312,
            "confidence": 0.99529218673706055,
            "end_tick": -1,
            "end_time": 20064.0,
            "hand": 0,
            "idx": 149,
            "note_id": 149,
            "pitch": 68,
            "spec_col": 613,
            "spec_row": 52,
            "src_spec_col": 611,
            "src_spec_row": 54,
            "start_tick": -1,
            "start_time": 19552.0,
            "velocity": 70
        },
        {
            "amplitude": 19.459133148193359,
            "confidence": 0.0055389106273651123,
            "end_tick": -1,
            "end_time": 19648.0,
            "hand": 0,
            "idx": 150,
            "note_id": 150,
            "pitch": 76,
            "spec_col": 613,
            "spec_row": 84,
            "src_spec_col": 612,
            "src_spec_row": 85,
            "start_tick": -1,
            "start_time": 19584.0,
            "velocity": 67
        },
        {
            "amplitude": 23.800865173339844,
            "confidence": 0.99878489971160889,
            "end_tick": -1,
            "end_time": 20160.0,
            "hand": 0,
            "idx": 151,
            "note_id": 151,
            "pitch": 64,
            "spec_col": 621,
            "spec_row": 41,
            "src_spec_col": 619,
            "src_spec_row": 43,
            "start_tick": -1,
            "start_time": 19808.0,
            "velocity": 67
        },
        {
            "amplitude": 23.32551383972168,
            "confidence": 0.99673771858215332,
            "end_tick": -1,
            "end_time": 20896.0,
            "hand": 0,
            "idx": 152,
            "note_id": 152,
            "pitch": 69,
            "spec_col": 621,
            "spec_row": 55,
            "src_spec_col": 619,
            "src_spec_row": 57,
            "start_tick": -1,
            "start_time": 19808.0,
            "velocity": 68
        },
        {
            "amplitude": -6.1079521179199219,
            "confidence": 0.0061044991016387939,
            "end_tick": -1,
            "end_time": 19904.0,
            "hand": 0,
            "idx": 153,
            "note_id": 153,
            "pitch": 57,
            "spec_col": 621,
            "spec_row": 31,
            "src_spec_col": 621,
            "src_spec_row": 29,
            "start_tick": -1,
            "start_time": 19872.0,
            "velocity": 44
        },
        {
            "amplitude": 24.177145004272461,
            "confidence": 0.99877429008483887,
            "end_tick": -1,
            "end_time": 20256.0,
            "hand": 0,
            "idx": 154,
            "note_id": 154,
            "pitch": 62,
            "spec_col": 625,
            "spec_row": 37,
            "src_spec_col": 623,
            "src_spec_row": 38,
            "start_tick": -1,
            "start_time": 19936.0,
            "velocity": 66
        },
        {
            "amplitude": 21.918317794799805,
            "confidence": 0.99914813041687012,
            "end_tick": -1,
            "end_time": 20352.0,
            "hand": 0,
            "idx": 155,
            "note_id": 155,
            "pitch": 61,
            "spec_col": 627,
            "spec_row": 37,
            "src_spec_col": 627,
            "src_spec_row": 36,
            "start_tick": -1,
            "start_time": 20064.0,
            "velocity": 66
        },
        {
            "amplitude": 18.951503753662109,
            "confidence": 0.99984288215637207,
            "end_tick": -1,
            "end_time": 20448.0,
            "hand": 0,
            "idx": 156,
            "note_id": 156,
            "pitch": 59,
            "spec_col": 634,
            "spec_row": 31,
            "src_spec_col": 631,
            "src_spec_row": 32,
            "start_tick": -1,
            "start_time": 20192.0,
            "velocity": 69
        },
        {
            "amplitude": 19.129550933837891,
            "confidence": 0.99887275695800781,
            "end_tick": -1,
            "end_time": 21120.0,
            "hand": 0,
            "idx": 157,
            "note_id": 157,
            "pitch": 57,
            "spec_col": 641,
            "spec_row": 27,
            "src_spec_col": 635,
            "src_spec_row": 29,
            "start_tick": -1,
            "start_time": 20320.0,
            "velocity": 62
        },
        {
            "amplitude": 22.023630142211914,
            "confidence": 0.98562073707580566,
            "end_tick": -1,
            "end_time": 21440.0,
            "hand": 0,
            "idx": 158,
            "note_id": 158,
            "pitch": 50,
            "spec_col": 655,
            "spec_row": 18,
            "src_spec_col": 651,
            "src_spec_row": 19,
            "start_tick": -1,
            "start_time": 20832.0,
            "velocity": 63
        },
        {
            "amplitude": 21.392127990722656,
            "confidence": 0.98706001043319702,
            "end_tick": -1,
            "end_time": 21248.0,
            "hand": 0,
            "idx": 159,
            "note_id": 159,
            "pitch": 81,
            "spec_col": 653,
            "spec_row": 112,
            "src_spec_col": 651,
            "src_spec_row": 113,
            "start_tick": -1,
            "start_time": 20832.0,
            "velocity": 73
        },
        {
            "amplitude": 10.626309394836426,
            "confidence": 0.010208755731582642,
            "end_tick": -1,
            "end_time": 21696.0,
            "hand": 0,
            "idx": 160,
            "note_id": 160,
            "pitch": 69,
            "spec_col": 655,
            "spec_row": 55,
            "src_spec_col": 653,
            "src_spec_row": 57,
            "start_tick": -1,
            "start_time": 20896.0,
            "velocity": 65
        },
        {
            "amplitude": 11.815145492553711,
            "confidence": 0.012314915657043457,
            "end_tick": -1,
            "end_time": 20960.0,
            "hand": 0,
            "idx": 161,
            "note_id": 161,
            "pitch": 74,
            "spec_col": 654,
            "spec_row": 74,
            "src_spec_col": 653,
            "src_spec_row": 76,
            "start_tick": -1,
            "start_time": 20896.0,
            "velocity": 67
        },
        {
            "amplitude": 18.709236145019531,
            "confidence": 0.99575221538543701,
            "end_tick": -1,
            "end_time": 21728.0,
            "hand": 0,
            "idx": 162,
            "note_id": 162,
            "pitch": 57,
            "spec_col": 662,
            "spec_row": 27,
            "src_spec_col": 660,
            "src_spec_row": 29,
            "start_tick": -1,
            "start_time": 21120.0,
            "velocity": 67
        },
        {
            "amplitude": 27.025993347167969,
            "confidence": 0.99892246723175049,
            "end_tick": -1,
            "end_time": 21824.0,
            "hand": 0,
            "idx": 163,
            "note_id": 163,
            "pitch": 79,
            "spec_col": 662,
            "spec_row": 100,
            "src_spec_col": 660,
            "src_spec_row": 101,
            "start_tick": -1,
            "start_time": 21120.0,
            "velocity": 71
        },
        {
            "amplitude": 22.492563247680664,
            "confidence": 0.99857568740844727,
            "end_tick": -1,
            "end_time": 21856.0,
            "hand": 0,
            "idx": 164,
            "note_id": 164,
            "pitch": 81,
            "spec_col": 666,
            "spec_row": 112,
            "src_spec_col": 664,
            "src_spec_row": 113,
            "start_tick": -1,
            "start_time": 21248.0,
            "velocity": 76
        },
        {
            "amplitude": 24.320869445800781,
            "confidence": 0.99816274642944336,
            "end_tick": -1,
            "end_time": 22400.0,
            "hand": 0,
            "idx": 165,
            "note_id": 165,
            "pitch": 62,
            "spec_col": 670,
            "spec_row": 37,
            "src_spec_col": 668,
            "src_spec_row": 38,
            "start_tick": -1,
            "start_time": 21376.0,
            "velocity": 65
        },
        {
            "amplitude": 21.647909164428711,
            "confidence": 0.99755996465682983,
            "end_tick": -1,
            "end_time": 22112.0,
            "hand": 0,
            "idx": 166,
            "note_id": 166,
            "pitch": 83,
            "spec_col": 670,
            "spec_row": 126,
            "src_spec_col": 668,
            "src_spec_row": 127,
            "start_tick": -1,
            "start_time": 21376.0,
            "velocity": 73
        },
        {
            "amplitude": 23.338912963867188,
            "confidence": 0.99856078624725342,
            "end_tick": -1,
            "end_time": 22016.0,
            "hand": 0,
            "idx": 167,
            "note_id": 167,
            "pitch": 86,
            "spec_col": 679,
            "spec_row": 150,
            "src_spec_col": 676,
            "src_spec_row": 151,
            "start_tick": -1,
            "start_time": 21632.0,
            "velocity": 74
        },
        {
            "amplitude": 21.984500885009766,
            "confidence": 0.99954414367675781,
            "end_tick": -1,
            "end_time": 22240.0,
            "hand": 0,
            "idx": 168,
            "note_id": 168,
            "pitch": 50,
            "spec_col": 687,
            "spec_row": 18,
            "src_spec_col": 684,
            "src_spec_row": 19,
            "start_tick": -1,
            "start_time": 21888.0,
            "velocity": 65
        },
        {
            "amplitude": 21.963726043701172,
            "confidence": 0.99848228693008423,
            "end_tick": -1,
            "end_time": 22272.0,
            "hand": 0,
            "idx": 169,
            "note_id": 169,
            "pitch": 81,
            "spec_col": 686,
            "spec_row": 112,
            "src_spec_col": 684,
            "src_spec_row": 113,
            "start_tick": -1,
            "start_time": 21888.0,
            "velocity": 75
        },
        {
            "amplitude": 23.403291702270508,
            "confidence": 0.99755406379699707,
            "end_tick": -1,
            "end_time": 22976.0,
            "hand": 0,
            "idx": 170,
            "note_id": 170,
            "pitch": 86,
            "spec_col": 691,
            "spec_row": 150,
            "src_spec_col": 688,
            "src_spec_row": 151,
            "start_tick": -1,
            "start_time": 22016.0,
            "velocity": 73
        },
        {
            "amplitude": 18.45850944519043,
            "confidence": 0.9965287446975708,
            "end_tick": -1,
            "end_time": 22912.0,
            "hand": 0,
            "idx": 171,
            "note_id": 171,
            "pitch": 57,
            "spec_col": 695,
            "spec_row": 27,
            "src_spec_col": 692,
            "src_spec_row": 29,
            "start_tick": -1,
            "start_time": 22144.0,
            "velocity": 59
        },
        {
            "amplitude": 21.913845062255859,
            "confidence": 0.99872016906738281,
            "end_tick": -1,
            "end_time": 22848.0,
            "hand": 0,
            "idx": 172,
            "note_id": 172,
            "pitch": 83,
            "spec_col": 694,
            "spec_row": 126,
            "src_spec_col": 692,
            "src_spec_row": 127,
            "start_tick": -1,
            "start_time": 22144.0,
            "velocity": 75
        },
        {
            "amplitude": 22.751899719238281,
            "confidence": 0.99843138456344604,
            "end_tick": -1,
            "end_time": 22528.0,
            "hand": 0,
            "idx": 173,
            "note_id": 173,
            "pitch": 81,
            "spec_col": 698,
            "spec_row": 112,
            "src_spec_col": 696,
            "src_spec_row": 113,
            "start_tick": -1,
            "start_time": 22272.0,
            "velocity": 74
        },
        {
            "amplitude": 24.239044189453125,
            "confidence": 0.99868077039718628,
            "end_tick": -1,
            "end_time": 23456.0,
            "hand": 0,
            "idx": 174,
            "note_id": 174,
            "pitch": 62,
            "spec_col": 703,
            "spec_row": 37,
            "src_spec_col": 700,
            "src_spec_row": 38,
            "start_tick": -1,
            "start_time": 22400.0,
            "velocity": 65
        },
        {
            "amplitude": 26.933780670166016,
            "confidence": 0.99820911884307861,
            "end_tick": -1,
            "end_time": 22688.0,
            "hand": 0,
            "idx": 175,
            "note_id": 175,
            "pitch": 79,
            "spec_col": 703,
            "spec_row": 100,
            "src_spec_col": 700,
            "src_spec_row": 101,
            "start_tick": -1,
            "start_time": 22400.0,
            "velocity": 70
        },
        {
            "amplitude": 21.385427474975586,
            "confidence": 0.99637520313262939,
            "end_tick": -1,
            "end_time": 23168.0,
            "hand": 0,
            "idx": 176,
            "note_id": 176,
            "pitch": 81,
            "spec_col": 706,
            "spec_row": 112,
            "src_spec_col": 704,
            "src_spec_row": 113,
            "start_tick": -1,
            "start_time": 22528.0,
            "velocity": 73
        },
        {
            "amplitude": 26.826089859008789,
            "confidence": 0.99630653858184814,
            "end_tick": -1,
            "end_time": 23072.0,
            "hand": 0,
            "idx": 177,
            "note_id": 177,
            "pitch": 79,
            "spec_col": 711,
            "spec_row": 100,
            "src_spec_col": 709,
            "src_spec_row": 101,
            "start_tick": -1,
            "start_time": 22688.0,
            "velocity": 69
        },
        {
            "amplitude": 27.943519592285156,
            "confidence": 0.99805396795272827,
            "end_tick": -1,
            "end_time": 23488.0,
            "hand": 0,
            "idx": 178,
            "note_id": 178,
            "pitch": 78,
            "spec_col": 715,
            "spec_row": 94,
            "src_spec_col": 713,
            "src_spec_row": 95,
            "start_tick": -1,
            "start_time": 22816.0,
            "velocity": 70
        },
        {
            "amplitude": 22.221406936645508,
            "confidence": 0.99885731935501099,
            "end_tick": -1,
            "end_time": 23456.0,
            "hand": 0,
            "idx": 179,
            "note_id": 179,
            "pitch": 52,
            "spec_col": 720,
            "spec_row": 20,
            "src_spec_col": 717,
            "src_spec_row": 21,
            "start_tick": -1,
            "start_time": 22944.0,
            "velocity": 66
        },
        {
            "amplitude": 22.336330413818359,
            "confidence": 0.99876129627227783,
            "end_tick": -1,
            "end_time": 23488.0,
            "hand": 0,
            "idx": 180,
            "note_id": 180,
            "pitch": 76,
            "spec_col": 722,
            "spec_row": 84,
            "src_spec_col": 717,
            "src_spec_row": 85,
            "start_tick": -1,
            "start_time": 22944.0,
            "velocity": 71
        },
        {
            "amplitude": 19.038059234619141,
            "confidence": 0.99961459636688232,
            "end_tick": -1,
            "end_time": 23488.0,
            "hand": 0,
            "idx": 181,
            "note_id": 181,
            "pitch": 59,
            "spec_col": 727,
            "spec_row": 31,
            "src_spec_col": 725,
            "src_spec_row": 32,
            "start_tick": -1,
            "start_time": 23200.0,
            "velocity": 70
        },
        {
            "amplitude": 4.5707683563232422,
            "confidence": 0.010171890258789062,
            "end_tick": -1,
            "end_time": 23296.0,
            "hand": 0,
            "idx": 182,
            "note_id": 182,
            "pitch": 83,
            "spec_col": 727,
            "spec_row": 126,
            "src_spec_col": 727,
            "src_spec_row": 127,
            "start_tick": -1,
            "start_time": 23264.0,
            "velocity": 55
        },
        {
            "amplitude": 24.109470367431641,
            "confidence": 0.99952793121337891,
            "end_tick": -1,
            "end_time": 24064.0,
            "hand": 0,
            "idx": 183,
            "note_id": 183,
            "pitch": 64,
            "spec_col": 735,
            "spec_row": 41,
            "src_spec_col": 733,
            "src_spec_row": 43,
            "start_tick": -1,
            "start_time": 23456.0,
            "velocity": 65
        },
        {
            "amplitude": 17.223178863525391,
            "confidence": 0.013628631830215454,
            "end_tick": -1,
            "end_time": 24576.0,
            "hand": 0,
            "idx": 184,
            "note_id": 184,
            "pitch": 76,
            "spec_col": 735,
            "spec_row": 83,
            "src_spec_col": 734,
            "src_spec_row": 85,
            "start_tick": -1,
            "start_time": 23488.0,
            "velocity": 66
        },
        {
            "amplitude": 21.976476669311523,
            "confidence": 0.99911928176879883,
            "end_tick": -1,
            "end_time": 24672.0,
            "hand": 0,
            "idx": 185,
            "note_id": 185,
            "pitch": 50,
            "spec_col": 753,
            "spec_row": 18,
            "src_spec_col": 749,
            "src_spec_row": 19,
            "start_tick": -1,
            "start_time": 23968.0,
            "velocity": 64
        },
        {
            "amplitude": 21.775199890136719,
            "confidence": 0.99804222583770752,
            "end_tick": -1,
            "end_time": 24384.0,
            "hand": 0,
            "idx": 186,
            "note_id": 186,
            "pitch": 81,
            "spec_col": 751,
            "spec_row": 112,
            "src_spec_col": 749,
            "src_spec_row": 113,
            "start_tick": -1,
            "start_time": 23968.0,
            "velocity": 74
        },
        {
            "amplitude": 10.092263221740723,
            "confidence": 0.02308538556098938,
            "end_tick": -1,
            "end_time": 24064.0,
            "hand": 0,
            "idx": 187,
            "note_id": 187,
            "pitch": 74,
            "spec_col": 751,
            "spec_row": 74,
            "src_spec_col": 751,
            "src_spec_row": 76,
            "start_tick": -1,
            "start_time": 24032.0,
            "velocity": 66
        },
        {
            "amplitude": 18.58808708190918,
            "confidence": 0.99053716659545898,
            "end_tick": -1,
            "end_time": 24768.0,
            "hand": 0,
            "idx": 188,
            "note_id": 188,
            "pitch": 57,
            "spec_col": 760,
            "spec_row": 27,
            "src_spec_col": 757,
            "src_spec_row": 29,
            "start_tick": -1,
            "start_time": 24224.0,
            "velocity": 66
        },
        {
            "amplitude": 27.006202697753906,
            "confidence": 0.99675846099853516,
            "end_tick": -1,
            "end_time": 24960.0,
            "hand": 0,
            "idx": 189,
            "note_id": 189,
            "pitch": 79,
            "spec_col": 760,
            "spec_row": 100,
            "src_spec_col": 757,
            "src_spec_row": 101,
            "start_tick": -1,
            "start_time": 24224.0,
            "velocity": 71
        },
        {
            "amplitude": 22.507272720336914,
            "confidence": 0.99711573123931885,
            "end_tick": -1,
            "end_time": 25024.0,
            "hand": 0,
            "idx": 190,
            "note_id": 190,
            "pitch": 81,
            "spec_col": 763,
            "spec_row": 112,
            "src_spec_col": 762,
            "src_spec_row": 113,
            "start_tick": -1,
            "start_time": 24384.0,
            "velocity": 75
        },
        {
            "amplitude": 24.49445915222168,
            "confidence": 0.99685728549957275,
            "end_tick": -1,
            "end_time": 25536.0,
            "hand": 0,
            "idx": 191,
            "note_id": 191,
            "pitch": 62,
            "spec_col": 768,
            "spec_row": 37,
            "src_spec_col": 766,
            "src_spec_row": 38,
            "start_tick": -1,
            "start_time": 24512.0,
            "velocity": 65
        },
        {
            "amplitude": 21.488807678222656,
            "confidence": 0.9966052770614624,
            "end_tick": -1,
            "end_time": 25248.0,
            "hand": 0,
            "idx": 192,
            "note_id": 192,
            "pitch": 83,
            "spec_col": 767,
            "spec_row": 126,
            "src_spec_col": 766,
            "src_spec_row": 127,
            "start_tick": -1,
            "start_time": 24512.0,
            "velocity": 73
        },
        {
            "amplitude": 23.521495819091797,
            "confidence": 0.99818354845046997,
            "end_tick": -1,
            "end_time": 25152.0,
            "hand": 0,
            "idx": 193,
            "note_id": 193,
            "pitch": 86,
            "spec_col": 776,
            "spec_row": 150,
            "src_spec_col": 774,
            "src_spec_row": 151,
            "start_tick": -1,
            "start_time": 24768.0,
            "velocity": 73
        },
        {
            "amplitude": 22.019229888916016,
            "confidence": 0.99953281879425049,
            "end_tick": -1,
            "end_time": 25600.0,
            "hand": 0,
            "idx": 194,
            "note_id": 194,
            "pitch": 50,
            "spec_col": 785,
            "spec_row": 18,
            "src_spec_col": 782,
            "src_spec_row": 19,
            "start_tick": -1,
            "start_time": 25024.0,
            "velocity": 65
        },
        {
            "amplitude": 21.84080696105957,
            "confidence": 0.99547433853149414,
            "end_tick": -1,
            "end_time": 25408.0,
            "hand": 0,
            "idx": 195,
            "note_id": 195,
            "pitch": 81,
            "spec_col": 784,
            "spec_row": 112,
            "src_spec_col": 782,
            "src_spec_row": 113,
            "start_tick": -1,
            "start_time": 25024.0,
            "velocity": 75
        },
        {
            "amplitude": 10.200529098510742,
            "confidence": 0.0050060153007507324,
            "end_tick": -1,
            "end_time": 25120.0,
            "hand": 0,
            "idx": 196,
            "note_id": 196,
            "pitch": 69,
            "spec_col": 784,
            "spec_row": 55,
            "src_spec_col": 784,
            "src_spec_row": 57,
            "start_tick": -1,
            "start_time": 25088.0,
            "velocity": 50
        },
        {
            "amplitude": 23.274747848510742,
            "confidence": 0.99766266345977783,
            "end_tick": -1,
            "end_time": 26080.0,
            "hand": 0,
            "idx": 197,
            "note_id": 197,
            "pitch": 86,
            "spec_col": 789,
            "spec_row": 150,
            "src_spec_col": 786,
            "src_spec_row": 151,
            "start_tick": -1,
            "start_time": 25152.0,
            "velocity": 73
        },
        {
            "amplitude": 18.306709289550781,
            "confidence": 0.99634420871734619,
            "end_tick": -1,
            "end_time": 26208.0,
            "hand": 0,
            "idx": 198,
            "note_id": 198,
            "pitch": 57,
            "spec_col": 794,
            "spec_row": 27,
            "src_spec_col": 790,
            "src_spec_row": 29,
            "start_tick": -1,
            "start_time": 25280.0,
            "velocity": 62
        },
        {
            "amplitude": 22.037750244140625,
            "confidence": 0.99885272979736328,
            "end_tick": -1,
            "end_time": 26080.0,
            "hand": 0,
            "idx": 199,
            "note_id": 199,
            "pitch": 83,
            "spec_col": 792,
            "spec_row": 126,
            "src_spec_col": 790,
            "src_spec_row": 127,
            "start_tick": -1,
            "start_time": 25280.0,
            "velocity": 74
        },
        {
            "amplitude": 22.811376571655273,
            "confidence": 0.99889254570007324,
            "end_tick": -1,
            "end_time": 26112.0,
            "hand": 0,
            "idx": 200,
            "note_id": 200,
            "pitch": 81,
            "spec_col": 796,
            "spec_row": 112,
            "src_spec_col": 794,
            "src_spec_row": 113,
            "start_tick": -1,
            "start_time": 25408.0,
            "velocity": 75
        },
        {
            "amplitude": 24.24455451965332,
            "confidence": 0.99938130378723145,
            "end_tick": -1,
            "end_time": 26112.0,
            "hand": 0,
            "idx": 201,
            "note_id": 201,
            "pitch": 62,
            "spec_col": 801,
            "spec_row": 37,
            "src_spec_col": 798,
            "src_spec_row": 38,
            "start_tick": -1,
            "start_time": 25536.0,
            "velocity": 66
        },
        {
            "amplitude": 26.923349380493164,
            "confidence": 0.99919617176055908,
            "end_tick": -1,
            "end_time": 26080.0,
            "hand": 0,
            "idx": 202,
            "note_id": 202,
            "pitch": 79,
            "spec_col": 801,
            "spec_row": 100,
            "src_spec_col": 798,
            "src_spec_row": 101,
            "start_tick": -1,
            "start_time": 25536.0,
            "velocity": 72
        },
        {
            "amplitude": 27.862390518188477,
            "confidence": 0.99148029088973999,
            "end_tick": -1,
            "end_time": 26112.0,
            "hand": 0,
            "idx": 203,
            "note_id": 203,
            "pitch": 78,
            "spec_col": 805,
            "spec_row": 94,
            "src_spec_col": 802,
            "src_spec_row": 95,
            "start_tick": -1,
            "start_time": 25664.0,
            "velocity": 69
        },
        {
            "amplitude": 22.251121520996094,
            "confidence": 0.99125570058822632,
            "end_tick": -1,
            "end_time": 26208.0,
            "hand": 0,
            "idx": 204,
            "note_id": 204,
            "pitch": 76,
            "spec_col": 810,
            "spec_row": 84,
            "src_spec_col": 806,
            "src_spec_row": 85,
            "start_tick": -1,
            "start_time": 25792.0,
            "velocity": 68
        },
        {
            "amplitude": 22.116292953491211,
            "confidence": 0.99268960952758789,
            "end_tick": -1,
            "end_time": 26144.0,
            "hand": 0,
            "idx": 205,
            "note_id": 205,
            "pitch": 74,
            "spec_col": 814,
            "spec_row": 74,
            "src_spec_col": 811,
            "src_spec_row": 76,
            "start_tick": -1,
            "start_time": 25952.0,
            "velocity": 71
        },
        {
            "amplitude": 22.316486358642578,
            "confidence": 0.93301254510879517,
            "end_tick": -1,
            "end_time": 26656.0,
            "hand": 0,
            "idx": 206,
            "note_id": 206,
            "pitch": 45,
            "spec_col": 817,
            "spec_row": 13,
            "src_spec_col": 814,
            "src_spec_row": 15,
            "start_tick": -1,
            "start_time": 26048.0,
            "velocity": 60
        },
        {
            "amplitude": 22.463340759277344,
            "confidence": 0.97708278894424438,
            "end_tick": -1,
            "end_time": 26656.0,
            "hand": 0,
            "idx": 207,
            "note_id": 207,
            "pitch": 69,
            "spec_col": 817,
            "spec_row": 55,
            "src_spec_col": 815,
            "src_spec_row": 57,
            "start_tick": -1,
            "start_time": 26080.0,
            "velocity": 69
        },
        {
            "amplitude": 22.215444564819336,
            "confidence": 0.99341195821762085,
            "end_tick": -1,
            "end_time": 26624.0,
            "hand": 0,
            "idx": 208,
            "note_id": 208,
            "pitch": 52,
            "spec_col": 826,
            "spec_row": 20,
            "src_spec_col": 822,
            "src_spec_row": 21,
            "start_tick": -1,
            "start_time": 26304.0,
            "velocity": 60
        },
        {
            "amplitude": 18.64869499206543,
            "confidence": 0.99652552604675293,
            "end_tick": -1,
            "end_time": 27168.0,
            "hand": 0,
            "idx": 209,
            "note_id": 209,
            "pitch": 57,
            "spec_col": 833,
            "spec_row": 27,
            "src_spec_col": 830,
            "src_spec_row": 29,
            "start_tick": -1,
            "start_time": 26560.0,
            "velocity": 54
        },
        {
            "amplitude": 15.040719032287598,
            "confidence": 0.014157891273498535,
            "end_tick": -1,
            "end_time": 27104.0,
            "hand": 0,
            "idx": 210,
            "note_id": 210,
            "pitch": 69,
            "spec_col": 834,
            "spec_row": 55,
            "src_spec_col": 833,
            "src_spec_row": 57,
            "start_tick": -1,
            "start_time": 26656.0,
            "velocity": 47
        },
        {
            "amplitude": 21.997295379638672,
            "confidence": 0.99792736768722534,
            "end_tick": -1,
            "end_time": 27392.0,
            "hand": 0,
            "idx": 211,
            "note_id": 211,
            "pitch": 50,
            "spec_col": 850,
            "spec_row": 18,
            "src_spec_col": 846,
            "src_spec_row": 19,
            "start_tick": -1,
            "start_time": 27072.0,
            "velocity": 32
        },
        {
            "amplitude": 11.310746192932129,
            "confidence": 0.10523530840873718,
            "end_tick": -1,
            "end_time": 27808.0,
            "hand": 0,
            "idx": 212,
            "note_id": 212,
            "pitch": 69,
            "spec_col": 850,
            "spec_row": 55,
            "src_spec_col": 847,
            "src_spec_row": 57,
            "start_tick": -1,
            "start_time": 27104.0,
            "velocity": 64
        },
        {
            "amplitude": 10.519917488098145,
            "confidence": 0.035470724105834961,
            "end_tick": -1,
            "end_time": 27200.0,
            "hand": 0,
            "idx": 213,
            "note_id": 213,
            "pitch": 74,
            "spec_col": 849,
            "spec_row": 74,
            "src_spec_col": 847,
            "src_spec_row": 76,
            "start_tick": -1,
            "start_time": 27104.0,
            "velocity": 64
        },
        {
            "amplitude": -12.772456169128418,
            "confidence": 0.0062142908573150635,
            "end_tick": -1,
            "end_time": 27136.0,
            "hand": 0,
            "idx": 214,
            "note_id": 214,
            "pitch": 78,
            "spec_col": 847,
            "spec_row": 96,
            "src_spec_col": 847,
            "src_spec_row": 95,
            "start_tick": -1,
            "start_time": 27104.0,
            "velocity": 67
        },
        {
            "amplitude": 21.633369445800781,
            "confidence": 0.66984987258911133,
            "end_tick": -1,
            "end_time": 28576.0,
            "hand": 0,
            "idx": 215,
            "note_id": 215,
            "pitch": 81,
            "spec_col": 849,
            "spec_row": 112,
            "src_spec_col": 847,
            "src_spec_row": 113,
            "start_tick": -1,
            "start_time": 27104.0,
            "velocity": 74
        },
        {
            "amplitude": 18.545688629150391,
            "confidence": 0.99713659286499023,
            "end_tick": -1,
            "end_time": 27712.0,
            "hand": 0,
            "idx": 216,
            "note_id": 216,
            "pitch": 57,
            "spec_col": 858,
            "spec_row": 27,
            "src_spec_col": 855,
            "src_spec_row": 29,
            "start_tick": -1,
            "start_time": 27360.0,
            "velocity": 62
        },
        {
            "amplitude": 27.437551498413086,
            "confidence": 0.99638199806213379,
            "end_tick": -1,
            "end_time": 28064.0,
            "hand": 0,
            "idx": 217,
            "note_id": 217,
            "pitch": 71,
            "spec_col": 858,
            "spec_row": 62,
            "src_spec_col": 855,
            "src_spec_row": 64,
            "start_tick": -1,
            "start_time": 27360.0,
            "velocity": 70
        },
        {
            "amplitude": 24.281755447387695,
            "confidence": 0.99553883075714111,
            "end_tick": -1,
            "end_time": 28000.0,
            "hand": 0,
            "idx": 218,
            "note_id": 218,
            "pitch": 62,
            "spec_col": 866,
            "spec_row": 37,
            "src_spec_col": 863,
            "src_spec_row": 38,
            "start_tick": -1,
            "start_time": 27616.0,
            "velocity": 64
        },
        {
            "amplitude": -0.77772682905197144,
            "confidence": 0.0064468979835510254,
            "end_tick": -1,
            "end_time": 27648.0,
            "hand": 0,
            "idx": 219,
            "note_id": 219,
            "pitch": 74,
            "spec_col": 863,
            "spec_row": 75,
            "src_spec_col": 863,
            "src_spec_row": 76,
            "start_tick": -1,
            "start_time": 27616.0,
            "velocity": 61
        },
        {
            "amplitude": 23.675422668457031,
            "confidence": 0.99385464191436768,
            "end_tick": -1,
            "end_time": 28448.0,
            "hand": 0,
            "idx": 220,
            "note_id": 220,
            "pitch": 69,
            "spec_col": 874,
            "spec_row": 55,
            "src_spec_col": 871,
            "src_spec_row": 57,
            "start_tick": -1,
            "start_time": 27872.0,
            "velocity": 65
        },
        {
            "amplitude": 20.730445861816406,
            "confidence": 0.99330925941467285,
            "end_tick": -1,
            "end_time": 28288.0,
            "hand": 0,
            "idx": 221,
            "note_id": 221,
            "pitch": 74,
            "spec_col": 882,
            "spec_row": 74,
            "src_spec_col": 880,
            "src_spec_row": 76,
            "start_tick": -1,
            "start_time": 28160.0,
            "velocity": 66
        },
        {
            "amplitude": 22.630060195922852,
            "confidence": 0.95525979995727539,
            "end_tick": -1,
            "end_time": 28544.0,
            "hand": 0,
            "idx": 222,
            "note_id": 222,
            "pitch": 74,
            "spec_col": 886,
            "spec_row": 74,
            "src_spec_col": 884,
            "src_spec_row": 76,
            "start_tick": -1,
            "start_time": 28288.0,
            "velocity": 64
        },
        {
            "amplitude": 27.440916061401367,
            "confidence": 0.99587708711624146,
            "end_tick": -1,
            "end_time": 28704.0,
            "hand": 0,
            "idx": 223,
            "note_id": 223,
            "pitch": 73,
            "spec_col": 891,
            "spec_row": 70,
            "src_spec_col": 888,
            "src_spec_row": 71,
            "start_tick": -1,
            "start_time": 28416.0,
            "velocity": 65
        },
        {
            "amplitude": 22.071060180664062,
            "confidence": 0.99726307392120361,
            "end_tick": -1,
            "end_time": 29216.0,
            "hand": 0,
            "idx": 224,
            "note_id": 224,
            "pitch": 74,
            "spec_col": 895,
            "spec_row": 74,
            "src_spec_col": 892,
            "src_spec_row": 76,
            "start_tick": -1,
            "start_time": 28544.0,
            "velocity": 68
        },
        {
            "amplitude": 22.167510986328125,
            "confidence": 0.98965555429458618,
            "end_tick": -1,
            "end_time": 29088.0,
            "hand": 0,
            "idx": 225,
            "note_id": 225,
            "pitch": 52,
            "spec_col": 899,
            "spec_row": 20,
            "src_spec_col": 895,
            "src_spec_row": 21,
            "start_tick": -1,
            "start_time": 28640.0,
            "velocity": 39
        },
        {
            "amplitude": 19.137569427490234,
            "confidence": 0.99447822570800781,
            "end_tick": -1,
            "end_time": 29536.0,
            "hand": 0,
            "idx": 226,
            "note_id": 226,
            "pitch": 57,
            "spec_col": 902,
            "spec_row": 27,
            "src_spec_col": 896,
            "src_spec_row": 29,
            "start_tick": -1,
            "start_time": 28672.0,
            "velocity": 67
        },
        {
            "amplitude": 24.302833557128906,
            "confidence": 0.96370381116867065,
            "end_tick": -1,
            "end_time": 29792.0,
            "hand": 0,
            "idx": 227,
            "note_id": 227,
            "pitch": 76,
            "spec_col": 901,
            "spec_row": 84,
            "src_spec_col": 896,
            "src_spec_row": 85,
            "start_tick": -1,
            "start_time": 28672.0,
            "velocity": 72
        },
        {
            "amplitude": -3.8574965000152588,
            "confidence": 0.0051517784595489502,
            "end_tick": -1,
            "end_time": 28704.0,
            "hand": 0,
            "idx": 228,
            "note_id": 228,
            "pitch": 88,
            "spec_col": 896,
            "spec_row": 168,
            "src_spec_col": 896,
            "src_spec_row": 169,
            "start_tick": -1,
            "start_time": 28672.0,
            "velocity": 71
        },
        {
            "amplitude": 22.602319717407227,
            "confidence": 0.99081414937973022,
            "end_tick": -1,
            "end_time": 29312.0,
            "hand": 0,
            "idx": 229,
            "note_id": 229,
            "pitch": 45,
            "spec_col": 907,
            "spec_row": 13,
            "src_spec_col": 904,
            "src_spec_row": 15,
            "start_tick": -1,
            "start_time": 28928.0,
            "velocity": 58
        },
        {
            "amplitude": 21.840267181396484,
            "confidence": 0.9977421760559082,
            "end_tick": -1,
            "end_time": 29440.0,
            "hand": 0,
            "idx": 230,
            "note_id": 230,
            "pitch": 81,
            "spec_col": 914,
            "spec_row": 112,
            "src_spec_col": 912,
            "src_spec_row": 113,
            "start_tick": -1,
            "start_time": 29184.0,
            "velocity": 74
        },
        {
            "amplitude": 20.039779663085938,
            "confidence": 0.97415995597839355,
            "end_tick": -1,
            "end_time": 29856.0,
            "hand": 0,
            "idx": 231,
            "note_id": 231,
            "pitch": 81,
            "spec_col": 923,
            "spec_row": 112,
            "src_spec_col": 920,
            "src_spec_row": 113,
            "start_tick": -1,
            "start_time": 29440.0,
            "velocity": 68
        },
        {
            "amplitude": 21.847372055053711,
            "confidence": 0.94147533178329468,
            "end_tick": -1,
            "end_time": 30016.0,
            "hand": 0,
            "idx": 232,
            "note_id": 232,
            "pitch": 52,
            "spec_col": 932,
            "spec_row": 20,
            "src_spec_col": 928,
            "src_spec_row": 21,
            "start_tick": -1,
            "start_time": 29696.0,
            "velocity": 54
        },
        {
            "amplitude": 19.35545539855957,
            "confidence": 0.97883862257003784,
            "end_tick": -1,
            "end_time": 29984.0,
            "hand": 0,
            "idx": 233,
            "note_id": 233,
            "pitch": 59,
            "spec_col": 931,
            "spec_row": 31,
            "src_spec_col": 928,
            "src_spec_row": 32,
            "start_tick": -1,
            "start_time": 29696.0,
            "velocity": 66
        },
        {
            "amplitude": 21.349273681640625,
            "confidence": 0.98657363653182983,
            "end_tick": -1,
            "end_time": 30112.0,
            "hand": 0,
            "idx": 234,
            "note_id": 234,
            "pitch": 83,
            "spec_col": 930,
            "spec_row": 126,
            "src_spec_col": 928,
            "src_spec_row": 127,
            "start_tick": -1,
            "start_time": 29696.0,
            "velocity": 72
        },
        {
            "amplitude": -1.328087329864502,
            "confidence": 0.042510837316513062,
            "end_tick": -1,
            "end_time": 29792.0,
            "hand": 0,
            "idx": 235,
            "note_id": 235,
            "pitch": 40,
            "spec_col": 930,
            "spec_row": 13,
            "src_spec_col": 929,
            "src_spec_row": 11,
            "start_tick": -1,
            "start_time": 29728.0,
            "velocity": 60
        },
        {
            "amplitude": 21.65815544128418,
            "confidence": 0.99661552906036377,
            "end_tick": -1,
            "end_time": 30240.0,
            "hand": 0,
            "idx": 236,
            "note_id": 236,
            "pitch": 81,
            "spec_col": 935,
            "spec_row": 112,
            "src_spec_col": 933,
            "src_spec_row": 113,
            "start_tick": -1,
            "start_time": 29856.0,
            "velocity": 75
        },
        {
            "amplitude": 27.013223648071289,
            "confidence": 0.99370574951171875,
            "end_tick": -1,
            "end_time": 30592.0,
            "hand": 0,
            "idx": 237,
            "note_id": 237,
            "pitch": 79,
            "spec_col": 939,
            "spec_row": 100,
            "src_spec_col": 937,
            "src_spec_row": 101,
            "start_tick": -1,
            "start_time": 29984.0,
            "velocity": 72
        },
        {
            "amplitude": 22.491779327392578,
            "confidence": 0.99679219722747803,
            "end_tick": -1,
            "end_time": 30784.0,
            "hand": 0,
            "idx": 238,
            "note_id": 238,
            "pitch": 45,
            "spec_col": 947,
            "spec_row": 13,
            "src_spec_col": 944,
            "src_spec_row": 15,
            "start_tick": -1,
            "start_time": 30208.0,
            "velocity": 40
        },
        {
            "amplitude": 22.086612701416016,
            "confidence": 0.99756914377212524,
            "end_tick": -1,
            "end_time": 32000.0,
            "hand": 0,
            "idx": 239,
            "note_id": 239,
            "pitch": 81,
            "spec_col": 947,
            "spec_row": 112,
            "src_spec_col": 945,
            "src_spec_row": 113,
            "start_tick": -1,
            "start_time": 30240.0,
            "velocity": 77
        },
        {
            "amplitude": 22.300163269042969,
            "confidence": 0.99936759471893311,
            "end_tick": -1,
            "end_time": 30784.0,
            "hand": 0,
            "idx": 240,
            "note_id": 240,
            "pitch": 52,
            "spec_col": 956,
            "spec_row": 20,
            "src_spec_col": 953,
            "src_spec_row": 21,
            "start_tick": -1,
            "start_time": 30496.0,
            "velocity": 64
        },
        {
            "amplitude": 18.654489517211914,
            "confidence": 0.99899756908416748,
            "end_tick": -1,
            "end_time": 31072.0,
            "hand": 0,
            "idx": 241,
            "note_id": 241,
            "pitch": 57,
            "spec_col": 964,
            "spec_row": 27,
            "src_spec_col": 961,
            "src_spec_row": 29,
            "start_tick": -1,
            "start_time": 30752.0,
            "velocity": 65
        },
        {
            "amplitude": 28.668291091918945,
            "confidence": 0.99482095241546631,
            "end_tick": -1,
            "end_time": 31776.0,
            "hand": 0,
            "idx": 242,
            "note_id": 242,
            "pitch": 47,
            "spec_col": 980,
            "spec_row": 15,
            "src_spec_col": 977,
            "src_spec_row": 16,
            "start_tick": -1,
            "start_time": 31264.0,
            "velocity": 56
        },
        {
            "amplitude": 23.543529510498047,
            "confidence": 0.99241799116134644,
            "end_tick": -1,
            "end_time": 31808.0,
            "hand": 0,
            "idx": 243,
            "note_id": 243,
            "pitch": 86,
            "spec_col": 980,
            "spec_row": 150,
            "src_spec_col": 977,
            "src_spec_row": 151,
            "start_tick": -1,
            "start_time": 31264.0,
            "velocity": 72
        },
        {
            "amplitude": 17.688100814819336,
            "confidence": 0.99677121639251709,
            "end_tick": -1,
            "end_time": 31872.0,
            "hand": 0,
            "idx": 244,
            "note_id": 244,
            "pitch": 54,
            "spec_col": 988,
            "spec_row": 23,
            "src_spec_col": 986,
            "src_spec_row": 24,
            "start_tick": -1,
            "start_time": 31552.0,
            "velocity": 66
        },
        {
            "amplitude": -6.8119726181030273,
            "confidence": 0.0059383213520050049,
            "end_tick": -1,
            "end_time": 31584.0,
            "hand": 0,
            "idx": 245,
            "note_id": 245,
            "pitch": 88,
            "spec_col": 986,
            "spec_row": 167,
            "src_spec_col": 986,
            "src_spec_row": 169,
            "start_tick": -1,
            "start_time": 31552.0,
            "velocity": 64
        },
        {
            "amplitude": 21.612586975097656,
            "confidence": 0.99770855903625488,
            "end_tick": -1,
            "end_time": 32544.0,
            "hand": 0,
            "idx": 246,
            "note_id": 246,
            "pitch": 83,
            "spec_col": 992,
            "spec_row": 126,
            "src_spec_col": 990,
            "src_spec_row": 127,
            "start_tick": -1,
            "start_time": 31680.0,
            "velocity": 76
        },
        {
            "amplitude": 19.379707336425781,
            "confidence": 0.99761790037155151,
            "end_tick": -1,
            "end_time": 32096.0,
            "hand": 0,
            "idx": 247,
            "note_id": 247,
            "pitch": 59,
            "spec_col": 996,
            "spec_row": 31,
            "src_spec_col": 993,
            "src_spec_row": 32,
            "start_tick": -1,
            "start_time": 31776.0,
            "velocity": 55
        },
        {
            "amplitude": 23.260402679443359,
            "confidence": 0.99898999929428101,
            "end_tick": -1,
            "end_time": 32064.0,
            "hand": 0,
            "idx": 248,
            "note_id": 248,
            "pitch": 86,
            "spec_col": 996,
            "spec_row": 150,
            "src_spec_col": 994,
            "src_spec_row": 151,
            "start_tick": -1,
            "start_time": 31808.0,
            "velocity": 72
        },
        {
            "amplitude": 23.374734878540039,
            "confidence": 0.99733650684356689,
            "end_tick": -1,
            "end_time": 32576.0,
            "hand": 0,
            "idx": 249,
            "note_id": 249,
            "pitch": 86,
            "spec_col": 1005,
            "spec_row": 150,
            "src_spec_col": 1002,
            "src_spec_row": 151,
            "start_tick": -1,
            "start_time": 32064.0,
            "velocity": 72
        },
        {
            "amplitude": 21.96647834777832,
            "confidence": 0.99896037578582764,
            "end_tick": -1,
            "end_time": 32672.0,
            "hand": 0,
            "idx": 250,
            "note_id": 250,
            "pitch": 50,
            "spec_col": 1013,
            "spec_row": 18,
            "src_spec_col": 1010,
            "src_spec_row": 19,
            "start_tick": -1,
            "start_time": 32320.0,
            "velocity": 63
        },
        {
            "amplitude": 22.009365081787109,
            "confidence": 0.9911651611328125,
            "end_tick": -1,
            "end_time": 33088.0,
            "hand": 0,
            "idx": 251,
            "note_id": 251,
            "pitch": 81,
            "spec_col": 1012,
            "spec_row": 112,
            "src_spec_col": 1010,
            "src_spec_row": 113,
            "start_tick": -1,
            "start_time": 32320.0,
            "velocity": 74
        },
        {
            "amplitude": -9.6843605041503906,
            "confidence": 0.0059059858322143555,
            "end_tick": -1,
            "end_time": 32352.0,
            "hand": 0,
            "idx": 252,
            "note_id": 252,
            "pitch": 93,
            "spec_col": 1010,
            "spec_row": 226,
            "src_spec_col": 1010,
            "src_spec_row": 226,
            "start_tick": -1,
            "start_time": 32320.0,
            "velocity": 72
        },
        {
            "amplitude": 18.56214714050293,
            "confidence": 0.9977039098739624,
            "end_tick": -1,
            "end_time": 33024.0,
            "hand": 0,
            "idx": 253,
            "note_id": 253,
            "pitch": 57,
            "spec_col": 1021,
            "spec_row": 27,
            "src_spec_col": 1018,
            "src_spec_row": 29,
            "start_tick": -1,
            "start_time": 32576.0,
            "velocity": 64
        },
        {
            "amplitude": 23.627836227416992,
            "confidence": 0.99907594919204712,
            "end_tick": -1,
            "end_time": 33664.0,
            "hand": 0,
            "idx": 254,
            "note_id": 254,
            "pitch": 86,
            "spec_col": 1021,
            "spec_row": 150,
            "src_spec_col": 1018,
            "src_spec_row": 151,
            "start_tick": -1,
            "start_time": 32576.0,
            "velocity": 74
        },
        {
            "amplitude": 24.338457107543945,
            "confidence": 0.99542665481567383,
            "end_tick": -1,
            "end_time": 33632.0,
            "hand": 0,
            "idx": 255,
            "note_id": 255,
            "pitch": 62,
            "spec_col": 1029,
            "spec_row": 37,
            "src_spec_col": 1026,
            "src_spec_row": 38,
            "start_tick": -1,
            "start_time": 32832.0,
            "velocity": 64
        },
        {
            "amplitude": 21.828029632568359,
            "confidence": 0.99784356355667114,
            "end_tick": -1,
            "end_time": 33824.0,
            "hand": 0,
            "idx": 256,
            "note_id": 256,
            "pitch": 83,
            "spec_col": 1028,
            "spec_row": 126,
            "src_spec_col": 1026,
            "src_spec_row": 127,
            "start_tick": -1,
            "start_time": 32832.0,
            "velocity": 72
        },
        {
            "amplitude": 21.394317626953125,
            "confidence": 0.98016512393951416,
            "end_tick": -1,
            "end_time": 34144.0,
            "hand": 0,
            "idx": 257,
            "note_id": 257,
            "pitch": 81,
            "spec_col": 1037,
            "spec_row": 112,
            "src_spec_col": 1034,
            "src_spec_row": 113,
            "start_tick": -1,
            "start_time": 33088.0,
            "velocity": 71
        },
        {
            "amplitude": 17.957424163818359,
            "confidence": 0.99590528011322021,
            "end_tick": -1,
            "end_time": 33856.0,
            "hand": 0,
            "idx": 258,
            "note_id": 258,
            "pitch": 55,
            "spec_col": 1046,
            "spec_row": 24,
            "src_spec_col": 1043,
            "src_spec_row": 25,
            "start_tick": -1,
            "start_time": 33376.0,
            "velocity": 66
        },
        {
            "amplitude": 26.178487777709961,
            "confidence": 0.99341309070587158,
            "end_tick": -1,
            "end_time": 33632.0,
            "hand": 0,
            "idx": 259,
            "note_id": 259,
            "pitch": 79,
            "spec_col": 1045,
            "spec_row": 100,
            "src_spec_col": 1043,
            "src_spec_row": 101,
            "start_tick": -1,
            "start_time": 33376.0,
            "velocity": 72
        },
        {
            "amplitude": 24.272361755371094,
            "confidence": 0.99792206287384033,
            "end_tick": -1,
            "end_time": 34144.0,
            "hand": 0,
            "idx": 260,
            "note_id": 260,
            "pitch": 62,
            "spec_col": 1053,
            "spec_row": 37,
            "src_spec_col": 1051,
            "src_spec_row": 38,
            "start_tick": -1,
            "start_time": 33632.0,
            "velocity": 68
        },
        {
            "amplitude": 26.998695373535156,
            "confidence": 0.99288463592529297,
            "end_tick": -1,
            "end_time": 33888.0,
            "hand": 0,
            "idx": 261,
            "note_id": 261,
            "pitch": 79,
            "spec_col": 1053,
            "spec_row": 100,
            "src_spec_col": 1051,
            "src_spec_row": 101,
            "start_tick": -1,
            "start_time": 33632.0,
            "velocity": 71
        },
        {
            "amplitude": 24.06158447265625,
            "confidence": 0.99865537881851196,
            "end_tick": -1,
            "end_time": 34240.0,
            "hand": 0,
            "idx": 262,
            "note_id": 262,
            "pitch": 64,
            "spec_col": 1062,
            "spec_row": 41,
            "src_spec_col": 1059,
            "src_spec_row": 43,
            "start_tick": -1,
            "start_time": 33888.0,
            "velocity": 68
        },
        {
            "amplitude": 26.565937042236328,
            "confidence": 0.99723339080810547,
            "end_tick": -1,
            "end_time": 34144.0,
            "hand": 0,
            "idx": 263,
            "note_id": 263,
            "pitch": 79,
            "spec_col": 1062,
            "spec_row": 100,
            "src_spec_col": 1059,
            "src_spec_row": 101,
            "start_tick": -1,
            "start_time": 33888.0,
            "velocity": 71
        },
        {
            "amplitude": 26.733999252319336,
            "confidence": 0.99605357646942139,
            "end_tick": -1,
            "end_time": 34848.0,
            "hand": 0,
            "idx": 264,
            "note_id": 264,
            "pitch": 79,
            "spec_col": 1070,
            "spec_row": 100,
            "src_spec_col": 1067,
            "src_spec_row": 101,
            "start_tick": -1,
            "start_time": 34144.0,
            "velocity": 67
        },
        {
            "amplitude": 22.333976745605469,
            "confidence": 0.99894005060195923,
            "end_tick": -1,
            "end_time": 34688.0,
            "hand": 0,
            "idx": 265,
            "note_id": 265,
            "pitch": 52,
            "spec_col": 1078,
            "spec_row": 20,
            "src_spec_col": 1075,
            "src_spec_row": 21,
            "start_tick": -1,
            "start_time": 34400.0,
            "velocity": 65
        },
        {
            "amplitude": 18.812980651855469,
            "confidence": 0.0085226893424987793,
            "end_tick": -1,
            "end_time": 34624.0,
            "hand": 0,
            "idx": 266,
            "note_id": 266,
            "pitch": 64,
            "spec_col": 1078,
            "spec_row": 41,
            "src_spec_col": 1075,
            "src_spec_row": 43,
            "start_tick": -1,
            "start_time": 34400.0,
            "velocity": 63
        },
        {
            "amplitude": 21.482385635375977,
            "confidence": 0.99761128425598145,
            "end_tick": -1,
            "end_time": 34912.0,
            "hand": 0,
            "idx": 267,
            "note_id": 267,
            "pitch": 76,
            "spec_col": 1080,
            "spec_row": 84,
            "src_spec_col": 1075,
            "src_spec_row": 85,
            "start_tick": -1,
            "start_time": 34400.0,
            "velocity": 72
        },
        {
            "amplitude": 18.981225967407227,
            "confidence": 0.99386978149414062,
            "end_tick": -1,
            "end_time": 34976.0,
            "hand": 0,
            "idx": 268,
            "note_id": 268,
            "pitch": 59,
            "spec_col": 1086,
            "spec_row": 31,
            "src_spec_col": 1083,
            "src_spec_row": 32,
            "start_tick": -1,
            "start_time": 34656.0,
            "velocity": 64
        },
        {
            "amplitude": 21.359970092773438,
            "confidence": 0.98747712373733521,
            "end_tick": -1,
            "end_time": 35360.0,
            "hand": 0,
            "idx": 269,
            "note_id": 269,
            "pitch": 81,
            "spec_col": 1085,
            "spec_row": 112,
            "src_spec_col": 1083,
            "src_spec_row": 113,
            "start_tick": -1,
            "start_time": 34656.0,
            "velocity": 73
        },
        {
            "amplitude": 24.002773284912109,
            "confidence": 0.98991537094116211,
            "end_tick": -1,
            "end_time": 35360.0,
            "hand": 0,
            "idx": 270,
            "note_id": 270,
            "pitch": 64,
            "spec_col": 1094,
            "spec_row": 41,
            "src_spec_col": 1091,
            "src_spec_row": 43,
            "start_tick": -1,
            "start_time": 34912.0,
            "velocity": 63
        },
        {
            "amplitude": 25.347461700439453,
            "confidence": 0.98511362075805664,
            "end_tick": -1,
            "end_time": 35424.0,
            "hand": 0,
            "idx": 271,
            "note_id": 271,
            "pitch": 76,
            "spec_col": 1094,
            "spec_row": 84,
            "src_spec_col": 1091,
            "src_spec_row": 85,
            "start_tick": -1,
            "start_time": 34912.0,
            "velocity": 66
        },
        {
            "amplitude": 22.097555160522461,
            "confidence": 0.99733734130859375,
            "end_tick": -1,
            "end_time": 35584.0,
            "hand": 0,
            "idx": 272,
            "note_id": 272,
            "pitch": 74,
            "spec_col": 1103,
            "spec_row": 74,
            "src_spec_col": 1100,
            "src_spec_row": 76,
            "start_tick": -1,
            "start_time": 35200.0,
            "velocity": 70
        },
        {
            "amplitude": 22.188373565673828,
            "confidence": 0.99839413166046143,
            "end_tick": -1,
            "end_time": 35808.0,
            "hand": 0,
            "idx": 273,
            "note_id": 273,
            "pitch": 76,
            "spec_col": 1111,
            "spec_row": 84,
            "src_spec_col": 1108,
            "src_spec_row": 85,
            "start_tick": -1,
            "start_time": 35456.0,
            "velocity": 71
        },
        {
            "amplitude": 21.733142852783203,
            "confidence": 0.99844348430633545,
            "end_tick": -1,
            "end_time": 35712.0,
            "hand": 0,
            "idx": 274,
            "note_id": 274,
            "pitch": 74,
            "spec_col": 1115,
            "spec_row": 74,
            "src_spec_col": 1112,
            "src_spec_row": 76,
            "start_tick": -1,
            "start_time": 35584.0,
            "velocity": 69
        },
        {
            "amplitude": 27.747600555419922,
            "confidence": 0.99759340286254883,
            "end_tick": -1,
            "end_time": 36000.0,
            "hand": 0,
            "idx": 275,
            "note_id": 275,
            "pitch": 73,
            "spec_col": 1119,
            "spec_row": 70,
            "src_spec_col": 1116,
            "src_spec_row": 71,
            "start_tick": -1,
            "start_time": 35712.0,
            "velocity": 67
        },
        {
            "amplitude": 22.18687629699707,
            "confidence": 0.0055679082870483398,
            "end_tick": -1,
            "end_time": 35840.0,
            "hand": 0,
            "idx": 276,
            "note_id": 276,
            "pitch": 74,
            "spec_col": 1116,
            "spec_row": 74,
            "src_spec_col": 1116,
            "src_spec_row": 76,
            "start_tick": -1,
            "start_time": 35712.0,
            "velocity": 46
        },
        {
            "amplitude": 21.61433219909668,
            "confidence": 0.99592912197113037,
            "end_tick": -1,
            "end_time": 36384.0,
            "hand": 0,
            "idx": 277,
            "note_id": 277,
            "pitch": 74,
            "spec_col": 1124,
            "spec_row": 74,
            "src_spec_col": 1120,
            "src_spec_row": 76,
            "start_tick": -1,
            "start_time": 35840.0,
            "velocity": 67
        },
        {
            "amplitude": 19.119480133056641,
            "confidence": 0.99244612455368042,
            "end_tick": -1,
            "end_time": 36256.0,
            "hand": 0,
            "idx": 278,
            "note_id": 278,
            "pitch": 59,
            "spec_col": 1127,
            "spec_row": 31,
            "src_spec_col": 1123,
            "src_spec_row": 32,
            "start_tick": -1,
            "start_time": 35936.0,
            "velocity": 36
        },
        {
            "amplitude": 22.300277709960938,
            "confidence": 0.99037843942642212,
            "end_tick": -1,
            "end_time": 36288.0,
            "hand": 0,
            "idx": 279,
            "note_id": 279,
            "pitch": 52,
            "spec_col": 1127,
            "spec_row": 20,
            "src_spec_col": 1124,
            "src_spec_row": 21,
            "start_tick": -1,
            "start_time": 35968.0,
            "velocity": 64
        },
        {
            "amplitude": 21.431896209716797,
            "confidence": 0.99820989370346069,
            "end_tick": -1,
            "end_time": 36480.0,
            "hand": 0,
            "idx": 280,
            "note_id": 280,
            "pitch": 76,
            "spec_col": 1129,
            "spec_row": 84,
            "src_spec_col": 1124,
            "src_spec_row": 85,
            "start_tick": -1,
            "start_time": 35968.0,
            "velocity": 72
        },
        {
            "amplitude": 11.284210205078125,
            "confidence": 0.0058488845825195312,
            "end_tick": -1,
            "end_time": 36032.0,
            "hand": 0,
            "idx": 281,
            "note_id": 281,
            "pitch": 64,
            "spec_col": 1125,
            "spec_row": 41,
            "src_spec_col": 1125,
            "src_spec_row": 43,
            "start_tick": -1,
            "start_time": 36000.0,
            "velocity": 64
        },
        {
            "amplitude": 22.283329010009766,
            "confidence": 0.98611921072006226,
            "end_tick": -1,
            "end_time": 37120.0,
            "hand": 0,
            "idx": 282,
            "note_id": 282,
            "pitch": 52,
            "spec_col": 1144,
            "spec_row": 20,
            "src_spec_col": 1140,
            "src_spec_row": 21,
            "start_tick": -1,
            "start_time": 36480.0,
            "velocity": 59
        },
        {
            "amplitude": 21.469240188598633,
            "confidence": 0.98564422130584717,
            "end_tick": -1,
            "end_time": 37024.0,
            "hand": 0,
            "idx": 283,
            "note_id": 283,
            "pitch": 76,
            "spec_col": 1145,
            "spec_row": 84,
            "src_spec_col": 1140,
            "src_spec_row": 85,
            "start_tick": -1,
            "start_time": 36480.0,
            "velocity": 66
        },
        {
            "amplitude": 19.036575317382812,
            "confidence": 0.99587345123291016,
            "end_tick": -1,
            "end_time": 37088.0,
            "hand": 0,
            "idx": 284,
            "note_id": 284,
            "pitch": 59,
            "spec_col": 1151,
            "spec_row": 31,
            "src_spec_col": 1148,
            "src_spec_row": 32,
            "start_tick": -1,
            "start_time": 36736.0,
            "velocity": 61
        },
        {
            "amplitude": 21.467630386352539,
            "confidence": 0.97710585594177246,
            "end_tick": -1,
            "end_time": 37568.0,
            "hand": 0,
            "idx": 285,
            "note_id": 285,
            "pitch": 81,
            "spec_col": 1151,
            "spec_row": 112,
            "src_spec_col": 1148,
            "src_spec_row": 113,
            "start_tick": -1,
            "start_time": 36736.0,
            "velocity": 70
        },
        {
            "amplitude": 23.890634536743164,
            "confidence": 0.99580669403076172,
            "end_tick": -1,
            "end_time": 37504.0,
            "hand": 0,
            "idx": 286,
            "note_id": 286,
            "pitch": 64,
            "spec_col": 1159,
            "spec_row": 41,
            "src_spec_col": 1157,
            "src_spec_row": 43,
            "start_tick": -1,
            "start_time": 37024.0,
            "velocity": 65
        },
        {
            "amplitude": 25.191818237304688,
            "confidence": 0.98553192615509033,
            "end_tick": -1,
            "end_time": 37536.0,
            "hand": 0,
            "idx": 287,
            "note_id": 287,
            "pitch": 76,
            "spec_col": 1159,
            "spec_row": 84,
            "src_spec_col": 1157,
            "src_spec_row": 85,
            "start_tick": -1,
            "start_time": 37024.0,
            "velocity": 69
        },
        {
            "amplitude": 21.850444793701172,
            "confidence": 0.99804520606994629,
            "end_tick": -1,
            "end_time": 37664.0,
            "hand": 0,
            "idx": 288,
            "note_id": 288,
            "pitch": 74,
            "spec_col": 1169,
            "spec_row": 74,
            "src_spec_col": 1165,
            "src_spec_row": 76,
            "start_tick": -1,
            "start_time": 37280.0,
            "velocity": 69
        },
        {
            "amplitude": 18.372882843017578,
            "confidence": 0.9943617582321167,
            "end_tick": -1,
            "end_time": 37824.0,
            "hand": 0,
            "idx": 289,
            "note_id": 289,
            "pitch": 56,
            "spec_col": 1175,
            "spec_row": 25,
            "src_spec_col": 1173,
            "src_spec_row": 27,
            "start_tick": -1,
            "start_time": 37536.0,
            "velocity": 64
        },
        {
            "amplitude": 22.290836334228516,
            "confidence": 0.99847531318664551,
            "end_tick": -1,
            "end_time": 37984.0,
            "hand": 0,
            "idx": 290,
            "note_id": 290,
            "pitch": 76,
            "spec_col": 1177,
            "spec_row": 84,
            "src_spec_col": 1173,
            "src_spec_row": 85,
            "start_tick": -1,
            "start_time": 37536.0,
            "velocity": 72
        },
        {
            "amplitude": 22.230190277099609,
            "confidence": 0.9950593113899231,
            "end_tick": -1,
            "end_time": 38112.0,
            "hand": 0,
            "idx": 291,
            "note_id": 291,
            "pitch": 74,
            "spec_col": 1181,
            "spec_row": 74,
            "src_spec_col": 1177,
            "src_spec_row": 76,
            "start_tick": -1,
            "start_time": 37664.0,
            "velocity": 70
        },
        {
            "amplitude": 24.371511459350586,
            "confidence": 0.98849266767501831,
            "end_tick": -1,
            "end_time": 38144.0,
            "hand": 0,
            "idx": 292,
            "note_id": 292,
            "pitch": 64,
            "spec_col": 1184,
            "spec_row": 41,
            "src_spec_col": 1181,
            "src_spec_row": 43,
            "start_tick": -1,
            "start_time": 37792.0,
            "velocity": 65
        },
        {
            "amplitude": 27.853694915771484,
            "confidence": 0.99541175365447998,
            "end_tick": -1,
            "end_time": 38112.0,
            "hand": 0,
            "idx": 293,
            "note_id": 293,
            "pitch": 73,
            "spec_col": 1184,
            "spec_row": 70,
            "src_spec_col": 1181,
            "src_spec_row": 71,
            "start_tick": -1,
            "start_time": 37792.0,
            "velocity": 70
        },
        {
            "amplitude": 27.346439361572266,
            "confidence": 0.95322740077972412,
            "end_tick": -1,
            "end_time": 38784.0,
            "hand": 0,
            "idx": 294,
            "note_id": 294,
            "pitch": 71,
            "spec_col": 1188,
            "spec_row": 62,
            "src_spec_col": 1185,
            "src_spec_row": 64,
            "start_tick": -1,
            "start_time": 37920.0,
            "velocity": 66
        },
        {
            "amplitude": 22.310508728027344,
            "confidence": 0.94757705926895142,
            "end_tick": -1,
            "end_time": 38816.0,
            "hand": 0,
            "idx": 295,
            "note_id": 295,
            "pitch": 52,
            "spec_col": 1192,
            "spec_row": 20,
            "src_spec_col": 1189,
            "src_spec_row": 21,
            "start_tick": -1,
            "start_time": 38048.0,
            "velocity": 60
        },
        {
            "amplitude": 23.571832656860352,
            "confidence": 0.95415043830871582,
            "end_tick": -1,
            "end_time": 38560.0,
            "hand": 0,
            "idx": 296,
            "note_id": 296,
            "pitch": 69,
            "spec_col": 1192,
            "spec_row": 55,
            "src_spec_col": 1189,
            "src_spec_row": 57,
            "start_tick": -1,
            "start_time": 38048.0,
            "velocity": 68
        },
        {
            "amplitude": 19.476099014282227,
            "confidence": 0.0056650042533874512,
            "end_tick": -1,
            "end_time": 38304.0,
            "hand": 0,
            "idx": 297,
            "note_id": 297,
            "pitch": 64,
            "spec_col": 1192,
            "spec_row": 41,
            "src_spec_col": 1192,
            "src_spec_row": 43,
            "start_tick": -1,
            "start_time": 38144.0,
            "velocity": 41
        },
        {
            "amplitude": 23.833192825317383,
            "confidence": 0.98300462961196899,
            "end_tick": -1,
            "end_time": 38560.0,
            "hand": 0,
            "idx": 298,
            "note_id": 298,
            "pitch": 64,
            "spec_col": 1200,
            "spec_row": 41,
            "src_spec_col": 1197,
            "src_spec_row": 43,
            "start_tick": -1,
            "start_time": 38304.0,
            "velocity": 66
        },
        {
            "amplitude": 24.373279571533203,
            "confidence": 0.97435736656188965,
            "end_tick": -1,
            "end_time": 38848.0,
            "hand": 0,
            "idx": 299,
            "note_id": 299,
            "pitch": 68,
            "spec_col": 1200,
            "spec_row": 52,
            "src_spec_col": 1197,
            "src_spec_row": 54,
            "start_tick": -1,
            "start_time": 38304.0,
            "velocity": 66
        },
        {
            "amplitude": 14.528549194335938,
            "confidence": 0.0075564980506896973,
            "end_tick": -1,
            "end_time": 38368.0,
            "hand": 0,
            "idx": 300,
            "note_id": 300,
            "pitch": 76,
            "spec_col": 1198,
            "spec_row": 83,
            "src_spec_col": 1198,
            "src_spec_row": 85,
            "start_tick": -1,
            "start_time": 38336.0,
            "velocity": 68
        },
        {
            "amplitude": 19.351753234863281,
            "confidence": 0.0051831305027008057,
            "end_tick": -1,
            "end_time": 38432.0,
            "hand": 0,
            "idx": 301,
            "note_id": 301,
            "pitch": 76,
            "spec_col": 1200,
            "spec_row": 84,
            "src_spec_col": 1200,
            "src_spec_row": 85,
            "start_tick": -1,
            "start_time": 38400.0,
            "velocity": 46
        },
        {
            "amplitude": 23.820890426635742,
            "confidence": 0.99226510524749756,
            "end_tick": -1,
            "end_time": 39072.0,
            "hand": 0,
            "idx": 302,
            "note_id": 302,
            "pitch": 64,
            "spec_col": 1208,
            "spec_row": 41,
            "src_spec_col": 1205,
            "src_spec_row": 43,
            "start_tick": -1,
            "start_time": 38560.0,
            "velocity": 59
        },
        {
            "amplitude": 23.577922821044922,
            "confidence": 0.985725998878479,
            "end_tick": -1,
            "end_time": 39648.0,
            "hand": 0,
            "idx": 303,
            "note_id": 303,
            "pitch": 69,
            "spec_col": 1208,
            "spec_row": 55,
            "src_spec_col": 1205,
            "src_spec_row": 57,
            "start_tick": -1,
            "start_time": 38560.0,
            "velocity": 56
        },
        {
            "amplitude": 24.235317230224609,
            "confidence": 0.99670284986495972,
            "end_tick": -1,
            "end_time": 39104.0,
            "hand": 0,
            "idx": 304,
            "note_id": 304,
            "pitch": 62,
            "spec_col": 1212,
            "spec_row": 37,
            "src_spec_col": 1210,
            "src_spec_row": 38,
            "start_tick": -1,
            "start_time": 38720.0,
            "velocity": 66
        },
        {
            "amplitude": 22.692424774169922,
            "confidence": 0.99721866846084595,
            "end_tick": -1,
            "end_time": 39136.0,
            "hand": 0,
            "idx": 305,
            "note_id": 305,
            "pitch": 61,
            "spec_col": 1214,
            "spec_row": 37,
            "src_spec_col": 1214,
            "src_spec_row": 36,
            "start_tick": -1,
            "start_time": 38848.0,
            "velocity": 65
        },
        {
            "amplitude": 19.165821075439453,
            "confidence": 0.99832916259765625,
            "end_tick": -1,
            "end_time": 39232.0,
            "hand": 0,
            "idx": 306,
            "note_id": 306,
            "pitch": 59,
            "spec_col": 1218,
            "spec_row": 34,
            "src_spec_col": 1218,
            "src_spec_row": 32,
            "start_tick": -1,
            "start_time": 38976.0,
            "velocity": 70
        },
        {
            "amplitude": 19.128408432006836,
            "confidence": 0.99437350034713745,
            "end_tick": -1,
            "end_time": 39616.0,
            "hand": 0,
            "idx": 307,
            "note_id": 307,
            "pitch": 57,
            "spec_col": 1228,
            "spec_row": 27,
            "src_spec_col": 1222,
            "src_spec_row": 29,
            "start_tick": -1,
            "start_time": 39104.0,
            "velocity": 65
        },
        {
            "amplitude": -9.8714694976806641,
            "confidence": 0.014422714710235596,
            "end_tick": -1,
            "end_time": 39648.0,
            "hand": 0,
            "idx": 308,
            "note_id": 308,
            "pitch": 44,
            "spec_col": 1238,
            "spec_row": 13,
            "src_spec_col": 1238,
            "src_spec_row": 14,
            "start_tick": -1,
            "start_time": 39616.0,
            "velocity": 46
        },
        {
            "amplitude": -9.2378692626953125,
            "confidence": 0.0077424943447113037,
            "end_tick": -1,
            "end_time": 39648.0,
            "hand": 0,
            "idx": 309,
            "note_id": 309,
            "pitch": 45,
            "spec_col": 1238,
            "spec_row": 17,
            "src_spec_col": 1238,
            "src_spec_row": 15,
            "start_tick": -1,
            "start_time": 39616.0,
            "velocity": 41
        },
        {
            "amplitude": -1.4115704298019409,
            "confidence": 0.0065336823463439941,
            "end_tick": -1,
            "end_time": 39648.0,
            "hand": 0,
            "idx": 310,
            "note_id": 310,
            "pitch": 52,
            "spec_col": 1238,
            "spec_row": 23,
            "src_spec_col": 1238,
            "src_spec_row": 21,
            "start_tick": -1,
            "start_time": 39616.0,
            "velocity": 40
        },
        {
            "amplitude": 16.727270126342773,
            "confidence": 0.0071630179882049561,
            "end_tick": -1,
            "end_time": 39648.0,
            "hand": 0,
            "idx": 311,
            "note_id": 311,
            "pitch": 57,
            "spec_col": 1238,
            "spec_row": 27,
            "src_spec_col": 1238,
            "src_spec_row": 29,
            "start_tick": -1,
            "start_time": 39616.0,
            "velocity": 43
        },
        {
            "amplitude": 13.444770812988281,
            "confidence": 0.0052219033241271973,
            "end_tick": -1,
            "end_time": 39648.0,
            "hand": 0,
            "idx": 312,
            "note_id": 312,
            "pitch": 58,
            "spec_col": 1238,
            "spec_row": 28,
            "src_spec_col": 1238,
            "src_spec_row": 30,
            "start_tick": -1,
            "start_time": 39616.0,
            "velocity": 41
        },
        {
            "amplitude": -14.356076240539551,
            "confidence": 0.0056803226470947266,
            "end_tick": -1,
            "end_time": 39648.0,
            "hand": 0,
            "idx": 313,
            "note_id": 313,
            "pitch": 64,
            "spec_col": 1238,
            "spec_row": 41,
            "src_spec_col": 1238,
            "src_spec_row": 43,
            "start_tick": -1,
            "start_time": 39616.0,
            "velocity": 41
        }
    ],
    "tempos": [
        {
            "idx": 0,
            "qpm": 120,
            "tick": 0,
            "time": 0
        }
    ],
    "time_signatures": [],
    "total_tick": -1,
    "total_time": 39648.0
}